<svg id="svg" xmlns="http://www.w3.org/2000/svg" xmlns:xlink="http://www.w3.org/1999/xlink" width="400" height="400" viewBox="0, 0, 400,400"><g id="svgg"><path id="path0" d="M191.016 2.162 C 183.886 6.207,8.251 123.574,5.596 126.068 C -0.394 131.691,-0.000 126.480,-0.000 200.000 C 0.000 273.520,-0.394 268.309,5.596 273.932 C 8.569 276.724,187.058 395.821,192.199 398.443 C 194.963 399.853,196.563 400.108,201.201 399.873 L 206.841 399.589 298.903 338.271 C 394.155 274.829,395.992 273.544,398.494 268.639 C 400.843 264.035,400.843 135.965,398.494 131.361 C 395.992 126.456,394.155 125.172,298.888 61.720 L 206.812 0.392 200.867 0.169 C 195.550 -0.031,194.509 0.179,191.016 2.162 M182.813 89.435 L 182.813 128.869 145.530 153.778 L 108.248 178.686 79.072 159.225 C 63.025 148.522,50.008 139.431,50.143 139.023 C 50.327 138.472,181.552 50.340,182.617 50.053 C 182.725 50.024,182.813 67.746,182.813 89.435 M321.384 158.923 L 291.797 178.653 254.492 153.776 L 217.188 128.898 217.188 89.447 L 217.188 49.995 284.079 94.595 L 350.971 139.194 321.384 158.923 M229.868 179.869 C 246.081 190.726,259.344 199.785,259.341 200.000 C 259.339 200.215,245.991 209.340,229.678 220.277 L 200.018 240.164 170.354 220.277 C 154.039 209.340,140.690 200.215,140.689 200.000 C 140.688 199.561,199.266 160.164,199.952 160.142 C 200.193 160.135,213.655 169.012,229.868 179.869 M75.781 200.000 C 75.781 200.291,66.465 206.739,55.078 214.329 L 34.375 228.128 34.375 200.000 L 34.375 171.872 55.078 185.671 C 66.465 193.261,75.781 199.709,75.781 200.000 M365.625 200.002 L 365.625 228.128 344.903 214.316 C 333.506 206.720,324.277 200.216,324.395 199.863 C 324.559 199.373,364.524 172.165,365.430 171.926 C 365.537 171.898,365.625 184.532,365.625 200.002 M182.813 310.551 L 182.813 350.001 116.406 305.731 C 79.883 281.383,50.000 261.170,50.000 260.814 C 50.000 260.458,63.095 251.432,79.101 240.756 L 108.201 221.345 145.507 246.223 L 182.813 271.102 182.813 310.551 M350.663 260.599 C 350.812 260.727,320.842 280.895,284.061 305.418 L 217.188 350.005 217.188 310.553 L 217.188 271.102 254.492 246.223 L 291.797 221.345 321.094 240.857 C 337.207 251.588,350.513 260.472,350.663 260.599 " stroke="none" fill="#000000" fill-rule="evenodd"></path></g></svg>