<svg id="svg" version="1.1" xmlns="http://www.w3.org/2000/svg" xmlns:xlink="http://www.w3.org/1999/xlink" width="400" height="400" viewBox="0, 0, 400,400"><g id="svgg"><path id="path0" d="M154.840 75.206 C 152.912 75.614,149.947 77.057,147.296 78.875 C 144.442 80.833,142.849 81.332,139.200 81.409 C 134.915 81.500,132.765 82.451,129.998 85.479 C 127.577 88.128,127.718 88.581,130.853 88.226 C 134.955 87.762,139.175 88.943,137.196 90.002 C 133.596 91.929,126.431 89.995,121.000 85.631 C 112.609 78.890,106.000 75.271,106.000 77.420 C 106.000 81.715,122.098 93.700,131.000 96.033 C 137.060 97.621,140.564 98.116,150.800 98.830 C 161.803 99.597,166.313 101.103,170.943 105.556 C 180.869 115.103,183.197 127.830,176.353 135.127 C 174.141 137.486,172.484 137.746,170.746 136.007 L 169.553 134.814 169.676 124.507 L 169.800 114.200 168.511 112.343 C 165.531 108.053,160.755 105.125,154.565 103.793 C 151.904 103.220,133.983 102.167,133.043 102.528 C 132.723 102.651,132.139 103.430,131.745 104.259 C 128.930 110.192,122.215 111.190,114.350 106.845 C 108.841 103.802,106.291 100.592,102.396 91.800 C 95.105 75.343,85.526 72.671,85.614 87.120 C 85.728 105.707,104.746 120.278,126.000 118.064 C 130.550 117.590,130.983 117.843,129.162 119.916 C 123.581 126.274,117.401 125.669,103.824 117.438 C 92.537 110.596,88.831 109.781,85.620 113.438 C 82.814 116.634,85.219 121.809,92.000 127.165 C 99.136 132.801,110.011 134.317,121.000 131.208 C 121.880 130.959,123.140 130.601,123.800 130.413 C 124.460 130.226,125.989 129.710,127.198 129.267 C 131.917 127.540,128.291 130.952,122.209 133.962 C 114.450 137.803,106.291 138.701,100.200 136.385 C 99.760 136.218,98.770 135.864,98.000 135.600 C 97.230 135.336,96.240 134.978,95.800 134.805 C 85.370 130.711,78.891 137.010,87.023 143.338 C 98.145 151.993,110.197 151.769,125.368 142.627 C 131.577 138.885,131.814 138.972,127.539 143.420 C 116.591 154.814,111.303 156.990,99.000 155.165 C 90.669 153.929,87.454 154.492,85.376 157.550 C 82.514 161.762,86.075 166.761,93.553 169.031 C 100.910 171.264,111.886 167.052,125.305 156.847 C 132.605 151.296,132.383 151.450,132.667 151.733 C 133.598 152.665,121.101 165.072,115.159 169.114 C 108.060 173.944,104.523 175.200,98.023 175.200 C 87.838 175.200,83.200 177.410,83.200 182.261 C 83.200 187.601,93.722 191.292,101.472 188.670 C 105.723 187.232,114.394 181.592,117.000 178.569 C 121.456 173.403,137.189 161.455,138.202 162.469 C 138.617 162.884,115.713 186.325,112.062 189.221 C 105.329 194.562,103.870 195.117,95.333 195.581 C 87.251 196.021,85.849 196.532,83.550 199.873 C 79.565 205.665,84.465 209.766,95.400 209.789 C 106.152 209.812,109.902 207.295,122.207 191.800 C 131.738 179.799,146.613 166.748,139.772 176.389 C 138.687 177.917,135.925 181.830,133.634 185.084 C 124.084 198.644,117.722 206.674,111.421 213.119 C 106.032 218.630,104.513 219.478,99.059 220.018 C 96.937 220.228,93.474 220.571,91.364 220.779 C 79.674 221.936,78.695 231.602,89.955 234.688 C 98.631 237.065,106.576 235.026,112.834 228.814 C 117.454 224.228,119.941 220.527,129.192 204.473 C 136.697 191.447,143.784 184.299,152.100 181.365 C 154.675 180.456,154.597 180.903,150.646 189.604 C 141.462 209.830,134.528 218.321,123.894 222.364 C 120.454 223.672,126.837 229.600,131.684 229.600 C 138.198 229.600,143.817 223.656,148.029 212.310 C 153.002 198.910,157.326 193.610,164.117 192.592 C 166.458 192.240,166.559 192.732,164.660 195.234 C 161.409 199.519,154.276 209.786,154.111 210.420 C 152.583 216.262,164.426 210.900,170.020 203.218 C 172.929 199.223,174.124 199.987,171.868 204.400 C 165.781 216.308,156.767 224.934,142.600 232.411 C 137.430 235.140,137.600 234.976,137.600 237.234 C 137.600 242.831,133.398 248.161,126.080 251.848 C 122.642 253.579,122.891 253.634,120.472 250.615 C 114.520 243.187,105.832 241.168,100.726 246.025 C 98.810 247.847,98.941 248.195,101.784 248.831 C 104.650 249.473,106.767 250.701,107.897 252.379 C 109.493 254.747,108.875 255.001,104.427 253.807 C 99.028 252.358,95.057 253.560,93.196 257.207 C 91.898 259.752,92.068 260.157,94.300 259.832 C 100.384 258.944,102.693 259.197,104.594 260.960 C 105.806 262.083,105.873 263.294,104.805 264.792 C 100.502 270.836,101.914 278.967,107.687 281.379 C 110.565 282.581,111.130 282.066,109.200 280.000 C 106.626 277.245,108.608 273.724,112.518 274.104 C 114.529 274.300,114.649 274.253,116.052 272.738 L 117.504 271.171 118.960 272.029 C 120.047 272.671,120.743 272.818,121.708 272.611 C 127.358 271.397,129.407 272.343,132.633 277.655 C 134.356 280.490,134.867 280.553,136.409 278.122 C 138.277 275.175,137.847 270.934,135.199 266.200 C 131.213 259.073,131.125 258.868,131.878 258.469 C 132.275 258.259,137.968 257.033,144.529 255.744 C 157.958 253.105,155.927 253.988,162.220 248.058 C 163.771 246.596,167.725 242.880,171.008 239.800 C 174.290 236.720,178.660 232.580,180.719 230.600 C 185.253 226.239,185.303 226.209,186.224 227.226 C 187.069 228.160,186.846 228.685,183.859 232.800 C 174.377 245.861,163.383 253.567,150.403 256.252 C 146.626 257.034,146.648 257.017,147.494 258.462 C 150.731 263.995,161.191 264.498,170.495 259.568 C 171.417 259.079,172.800 259.099,172.800 259.600 C 172.800 260.906,168.701 263.992,162.934 267.027 C 157.588 269.842,154.400 273.328,154.400 276.361 C 154.400 280.265,162.550 279.296,176.127 273.780 C 179.870 272.259,180.439 272.390,179.338 274.520 C 178.122 276.871,177.028 278.073,173.000 281.481 C 163.713 289.340,163.065 294.644,171.399 294.577 C 176.091 294.539,179.393 291.885,186.213 282.671 C 187.952 280.322,189.523 278.400,189.705 278.400 C 190.185 278.400,189.630 289.245,188.958 293.000 C 188.258 296.911,186.256 301.258,183.594 304.645 C 181.138 307.770,180.853 306.739,185.883 312.929 C 188.239 315.828,191.952 320.405,194.135 323.100 C 196.317 325.795,198.215 327.994,198.351 327.987 C 198.765 327.966,199.691 327.102,202.000 324.585 C 203.210 323.266,206.555 319.670,209.433 316.594 C 218.926 306.445,218.133 307.847,215.939 305.088 C 212.144 300.315,211.298 296.392,211.990 286.769 C 212.242 283.257,212.336 280.030,212.199 279.596 C 211.850 278.497,212.317 277.833,213.026 278.421 C 213.331 278.675,214.800 281.158,216.290 283.941 C 221.151 293.016,226.445 296.688,231.200 294.282 C 234.837 292.443,233.523 288.720,226.834 281.913 C 218.630 273.563,217.889 271.470,224.045 274.028 C 236.365 279.147,244.253 280.199,244.995 276.823 C 245.619 273.982,242.677 270.272,237.625 267.532 C 231.182 264.038,227.200 261.035,227.200 259.670 C 227.200 258.977,227.822 259.109,232.600 260.812 C 241.320 263.920,245.750 263.873,250.651 260.619 C 253.467 258.749,253.447 258.709,248.900 256.976 C 227.375 248.773,217.092 240.233,214.611 228.500 C 214.210 226.603,215.054 226.809,217.886 229.300 C 220.765 231.832,228.255 238.291,237.200 245.954 C 240.830 249.064,244.340 251.771,245.000 251.970 C 245.660 252.169,249.800 253.586,254.200 255.118 C 258.600 256.651,263.370 258.310,264.800 258.806 C 269.544 260.450,269.726 260.822,267.164 263.616 C 263.258 267.876,261.212 272.142,261.756 274.896 C 262.374 278.033,263.912 280.295,265.884 280.967 C 269.061 282.049,269.651 281.839,268.600 280.000 C 267.533 278.134,267.834 276.229,269.414 274.841 C 270.894 273.542,271.466 273.421,275.421 273.577 C 277.944 273.676,278.406 273.432,279.384 271.489 C 279.996 270.274,280.670 270.226,280.959 271.378 C 281.436 273.279,282.852 273.794,285.984 273.203 C 290.932 272.269,292.103 274.487,289.134 279.168 C 287.187 282.239,288.197 282.492,292.064 279.900 C 296.335 277.037,298.309 270.707,296.436 265.874 C 295.394 263.184,296.411 260.367,298.915 259.002 L 300.379 258.205 303.626 259.039 C 307.560 260.050,307.923 259.713,305.929 256.905 C 303.374 253.305,299.772 252.407,294.241 253.988 C 291.086 254.891,290.804 254.828,291.149 253.307 C 291.818 250.354,293.704 248.687,296.900 248.226 C 299.226 247.889,299.306 247.362,297.361 245.209 C 293.357 240.778,281.917 244.882,278.031 252.143 C 277.219 253.659,276.266 253.501,271.333 251.029 C 263.925 247.318,261.442 244.023,261.501 237.983 C 261.534 234.598,261.524 234.562,260.394 234.061 C 244.612 227.076,231.457 215.086,227.257 203.861 C 225.735 199.793,226.517 199.710,230.297 203.535 C 234.575 207.865,240.524 210.259,242.989 208.644 C 244.719 207.510,244.273 206.553,238.796 199.649 C 232.901 192.217,232.894 192.203,235.483 192.592 C 242.423 193.632,246.364 198.367,252.639 213.200 C 257.570 224.857,262.112 228.800,270.607 228.800 C 277.927 228.800,279.616 226.320,274.556 223.002 C 264.574 216.458,258.289 208.361,250.026 191.400 C 244.577 180.217,244.554 180.065,248.547 181.763 C 254.903 184.464,260.484 189.480,265.478 196.980 C 268.358 201.307,269.034 202.464,273.424 210.600 C 279.252 221.400,284.357 228.195,289.612 232.145 C 297.881 238.361,317.200 235.635,317.200 228.253 C 317.200 222.925,314.352 221.125,304.744 220.380 C 298.574 219.901,295.181 219.154,293.200 217.840 C 288.515 214.729,276.540 200.663,268.793 189.170 C 267.840 187.757,266.952 186.510,266.821 186.400 C 266.689 186.290,265.424 184.490,264.008 182.400 C 262.593 180.310,260.662 177.545,259.717 176.256 C 256.770 172.233,257.495 172.147,262.087 175.975 C 265.876 179.133,268.335 181.839,276.791 192.162 C 289.023 207.096,295.045 211.284,304.400 211.362 C 312.845 211.432,316.708 208.573,316.324 202.537 C 315.988 197.273,313.873 196.136,303.508 195.649 C 295.122 195.254,294.549 195.052,288.211 190.247 C 283.228 186.468,261.113 163.554,261.793 162.874 C 262.308 162.359,270.229 167.621,273.269 170.497 C 289.479 185.836,295.753 189.756,304.000 189.703 C 311.177 189.656,316.000 186.686,316.000 182.312 C 316.000 177.079,312.271 175.246,301.560 175.215 C 296.518 175.200,295.280 174.983,292.104 173.560 C 291.172 173.142,290.339 172.800,290.253 172.800 C 288.123 172.800,273.850 161.013,268.059 154.471 C 264.906 150.909,265.552 150.840,270.424 154.217 C 291.416 168.770,298.077 171.443,306.368 168.638 C 320.776 163.763,317.655 152.475,302.600 155.009 C 295.163 156.261,293.065 156.391,290.387 155.766 C 284.910 154.489,279.243 150.799,273.200 144.577 C 269.623 140.893,269.482 140.263,272.528 141.569 C 285.207 147.004,306.635 148.337,314.801 144.200 C 321.064 141.026,321.149 132.836,314.919 132.809 C 312.897 132.800,312.374 132.942,309.000 134.409 C 300.312 138.187,292.806 138.498,281.800 135.536 C 277.211 134.301,268.400 130.082,268.400 129.120 C 268.400 128.691,269.446 128.714,270.305 129.161 C 270.687 129.360,271.810 129.740,272.800 130.007 C 273.790 130.274,275.050 130.639,275.600 130.817 C 276.150 130.995,277.500 131.329,278.600 131.559 C 279.700 131.789,281.445 132.162,282.477 132.389 C 289.810 133.996,300.296 132.266,305.400 128.606 C 313.455 122.831,316.982 116.502,313.876 113.396 C 310.244 109.764,305.976 110.809,297.389 117.434 C 290.445 122.791,286.805 123.929,278.885 123.215 C 272.602 122.648,267.437 121.263,267.272 120.100 C 267.191 119.528,267.352 119.200,267.714 119.200 C 279.426 119.200,292.551 116.228,299.200 112.069 C 312.649 103.658,320.330 80.074,310.237 78.181 C 307.675 77.700,302.400 80.824,302.400 82.822 C 302.400 83.746,295.207 94.633,291.843 98.800 C 281.118 112.085,272.994 114.217,268.209 105.000 C 266.688 102.070,267.448 102.219,256.895 102.788 C 243.033 103.536,238.502 104.855,233.672 109.550 C 229.702 113.410,229.530 114.073,229.676 124.979 C 229.827 136.266,229.354 137.600,225.200 137.600 C 221.491 137.600,220.589 135.868,220.637 128.835 C 220.674 123.401,220.869 122.211,222.757 115.848 C 226.319 103.843,233.531 99.518,253.800 97.231 C 263.007 96.192,265.128 95.933,267.600 95.550 C 280.562 93.538,287.609 89.151,290.154 81.511 C 291.716 76.821,289.467 77.570,282.800 83.962 C 279.531 87.095,277.232 88.713,274.650 89.694 C 271.402 90.928,262.800 91.169,262.800 90.026 C 262.800 89.434,268.961 88.000,271.504 88.000 C 276.129 88.000,274.102 85.201,267.736 82.799 C 264.971 81.755,263.827 81.065,262.253 79.491 C 258.456 75.694,248.776 73.678,243.200 75.523 C 233.979 78.574,227.258 78.845,216.603 76.593 C 214.183 76.082,212.133 75.734,212.046 75.821 C 211.859 76.008,213.324 77.960,216.487 81.736 C 217.759 83.255,218.800 84.720,218.800 84.992 C 218.800 85.402,213.448 87.926,209.100 89.565 C 207.566 90.144,207.708 90.529,210.000 92.000 C 212.667 93.711,212.642 93.762,207.590 97.102 C 202.710 100.327,202.506 100.612,204.799 101.000 C 208.465 101.619,208.453 101.838,204.362 108.800 C 199.205 117.578,200.047 117.247,196.490 111.900 C 190.883 103.472,190.630 102.327,194.139 101.238 C 196.543 100.491,196.653 100.682,191.800 97.200 C 189.500 95.550,187.617 94.110,187.615 94.000 C 187.606 93.387,189.758 91.820,191.272 91.336 C 191.861 91.148,192.609 90.039,192.309 89.797 C 192.249 89.749,189.635 88.765,186.500 87.611 C 179.817 85.151,180.002 85.576,183.402 80.492 C 186.197 76.311,186.190 75.987,183.322 76.965 C 180.303 77.993,175.575 77.788,169.696 76.373 C 164.181 75.046,157.916 74.554,154.840 75.206 M159.423 79.767 C 160.526 80.574,160.011 80.859,157.022 81.099 C 154.756 81.281,154.400 81.219,154.400 80.642 C 154.400 79.338,157.983 78.714,159.423 79.767 M254.423 80.437 C 254.936 81.267,254.472 81.600,252.802 81.600 C 250.105 81.600,248.081 80.383,249.900 79.855 C 251.106 79.505,254.084 79.889,254.423 80.437 " stroke="none" fill="#0a1d2f" fill-rule="evenodd"></path><path id="path1" d="M90.000 0.938 C 90.000 1.454,89.639 2.203,89.198 2.602 C 88.756 3.002,88.475 3.409,88.573 3.507 C 88.671 3.605,89.212 3.224,89.776 2.661 C 90.788 1.648,91.175 0.000,90.400 0.000 C 90.180 0.000,90.000 0.422,90.000 0.938 M94.800 0.429 C 94.800 1.068,95.995 2.141,96.319 1.793 C 96.474 1.627,96.375 1.410,96.100 1.312 C 95.825 1.214,95.600 0.878,95.600 0.567 C 95.600 0.255,95.420 0.000,95.200 0.000 C 94.980 0.000,94.800 0.193,94.800 0.429 M310.000 2.229 C 310.000 2.527,311.075 3.600,311.375 3.600 C 311.502 3.600,311.382 3.240,311.107 2.800 C 310.638 2.049,310.000 1.720,310.000 2.229 M99.600 4.567 C 99.600 4.988,100.805 6.128,101.021 5.912 C 101.122 5.811,100.844 5.402,100.402 5.002 C 99.961 4.603,99.600 4.407,99.600 4.567 M304.522 7.773 C 298.715 12.681,283.561 20.759,280.049 20.818 C 279.472 20.827,278.280 21.103,277.400 21.430 C 276.520 21.757,274.360 22.287,272.600 22.607 C 270.840 22.927,268.590 23.363,267.600 23.577 C 265.392 24.053,248.560 24.071,245.800 23.600 C 244.700 23.413,242.063 22.992,239.939 22.665 C 237.816 22.338,235.746 21.895,235.339 21.682 C 234.933 21.468,233.790 21.163,232.800 21.005 C 231.036 20.722,222.567 18.026,220.200 16.994 C 219.540 16.706,217.020 15.606,214.600 14.549 C 212.180 13.492,208.193 11.496,205.740 10.114 C 200.572 7.201,199.826 7.104,196.760 8.953 C 194.821 10.122,192.666 11.196,184.200 15.211 C 181.364 16.556,178.713 17.600,178.133 17.600 C 177.822 17.600,176.862 17.960,176.000 18.400 C 175.138 18.840,174.053 19.200,173.590 19.200 C 173.127 19.200,171.905 19.535,170.874 19.946 C 167.704 21.207,163.325 22.168,154.200 23.606 C 146.294 24.852,130.998 23.842,123.000 21.546 C 118.179 20.162,113.816 18.740,113.400 18.417 C 113.180 18.247,111.830 17.593,110.400 16.964 C 107.221 15.567,102.493 12.933,101.374 11.936 C 100.920 11.531,100.415 11.200,100.253 11.200 C 100.090 11.200,98.717 10.210,97.200 9.000 C 93.271 5.865,93.208 5.884,88.725 11.500 C 85.719 15.265,72.050 32.245,63.898 42.340 C 63.071 43.363,61.643 45.190,60.724 46.400 C 59.804 47.610,57.926 49.898,56.551 51.485 C 55.175 53.071,53.273 55.411,52.325 56.685 C 51.376 57.958,50.187 59.450,49.683 60.000 C 49.179 60.550,48.018 61.990,47.105 63.200 C 46.191 64.410,45.049 65.850,44.567 66.400 C 42.807 68.406,42.923 68.909,45.879 72.098 C 55.295 82.256,65.547 103.649,67.396 117.000 C 67.549 118.100,67.963 120.080,68.316 121.400 C 69.224 124.789,69.158 150.574,68.227 155.965 C 67.886 157.942,67.424 161.503,67.200 163.880 C 66.976 166.256,66.525 169.184,66.197 170.387 C 65.869 171.590,65.600 173.034,65.600 173.595 C 65.600 174.157,65.240 175.915,64.800 177.503 C 64.360 179.091,64.000 180.964,64.000 181.667 C 64.000 182.369,63.659 184.036,63.243 185.372 C 61.413 191.241,60.789 193.439,60.794 193.992 C 60.797 194.318,60.457 195.488,60.037 196.592 C 59.617 197.697,58.875 200.040,58.387 201.800 C 57.899 203.560,57.163 205.843,56.750 206.874 C 56.338 207.905,56.000 209.031,56.000 209.376 C 56.000 209.721,55.640 210.675,55.200 211.496 C 54.760 212.316,54.400 213.315,54.400 213.714 C 54.400 214.113,54.135 214.952,53.811 215.578 C 53.488 216.204,53.046 217.410,52.830 218.258 C 52.376 220.037,49.353 229.011,48.807 230.200 C 48.605 230.640,48.175 231.990,47.851 233.200 C 47.528 234.410,46.874 236.660,46.399 238.200 C 45.923 239.740,45.303 241.990,45.021 243.200 C 44.739 244.410,44.214 246.261,43.854 247.314 C 43.494 248.367,43.200 249.627,43.200 250.115 C 43.200 250.603,42.840 252.261,42.400 253.800 C 41.960 255.339,41.600 257.176,41.600 257.884 C 41.600 258.592,41.252 260.662,40.827 262.485 C 40.403 264.308,39.861 267.600,39.624 269.800 C 39.387 272.000,38.998 275.060,38.759 276.600 C 38.098 280.878,38.526 298.451,39.354 300.964 C 39.709 302.044,40.006 303.664,40.014 304.564 C 40.021 305.464,40.375 306.920,40.800 307.800 C 41.225 308.680,41.579 309.817,41.586 310.326 C 41.594 310.835,41.976 312.185,42.436 313.326 C 42.896 314.467,43.635 316.300,44.078 317.400 C 45.540 321.032,47.995 325.722,51.400 331.390 C 54.978 337.345,66.512 349.465,73.956 355.092 C 75.190 356.025,76.470 357.024,76.800 357.313 C 77.130 357.601,78.660 358.624,80.200 359.585 C 81.740 360.546,83.450 361.617,84.000 361.965 C 88.364 364.729,98.969 369.600,100.622 369.600 C 100.955 369.600,101.627 369.856,102.114 370.169 C 102.601 370.482,104.036 370.926,105.301 371.156 C 106.567 371.386,107.943 371.756,108.359 371.978 C 108.775 372.201,110.170 372.497,111.458 372.635 C 112.746 372.774,114.520 373.119,115.400 373.403 C 116.280 373.687,118.260 374.039,119.800 374.186 C 121.340 374.333,125.120 374.711,128.200 375.026 C 131.280 375.340,139.290 375.776,146.000 375.994 C 152.710 376.211,159.359 376.563,160.776 376.775 C 162.193 376.987,165.523 377.269,168.176 377.401 C 179.901 377.986,187.767 381.582,196.001 390.120 C 199.750 394.007,199.991 394.016,203.720 390.431 C 209.784 384.600,217.804 379.200,220.399 379.200 C 220.782 379.200,222.154 378.866,223.448 378.458 C 224.838 378.019,227.763 377.605,230.600 377.447 C 233.240 377.299,236.570 377.006,238.000 376.797 C 239.430 376.587,246.720 376.222,254.200 375.986 C 261.680 375.750,269.676 375.297,271.970 374.978 C 274.263 374.660,277.124 374.400,278.328 374.400 C 279.532 374.400,282.065 374.050,283.958 373.623 C 285.851 373.196,288.300 372.665,289.400 372.444 C 293.926 371.535,296.948 370.744,298.022 370.189 C 298.648 369.865,299.487 369.600,299.886 369.600 C 300.285 369.600,301.284 369.240,302.104 368.800 C 302.925 368.360,303.826 368.000,304.107 368.000 C 304.739 368.000,314.764 362.914,315.631 362.154 C 315.979 361.849,316.460 361.600,316.701 361.600 C 316.942 361.600,317.918 361.012,318.869 360.293 C 319.821 359.574,321.590 358.369,322.800 357.614 C 326.827 355.102,330.458 351.976,336.747 345.606 C 341.091 341.205,348.375 332.533,348.897 331.140 C 349.033 330.778,350.021 329.068,351.093 327.340 C 354.865 321.263,360.000 308.362,360.000 304.964 C 360.000 304.284,360.278 302.844,360.618 301.764 C 361.921 297.623,362.039 278.882,360.806 271.800 C 360.576 270.480,360.223 267.889,360.023 266.043 C 359.822 264.196,359.388 261.586,359.058 260.243 C 358.729 258.899,358.269 256.720,358.037 255.400 C 357.805 254.080,357.412 252.190,357.163 251.200 C 356.915 250.210,356.359 247.960,355.928 246.200 C 354.903 242.013,353.692 237.888,352.754 235.392 C 352.339 234.288,351.998 233.118,351.996 232.792 C 351.994 232.467,351.353 230.400,350.571 228.200 C 349.790 226.000,348.981 223.570,348.774 222.800 C 348.567 222.030,347.581 219.060,346.583 216.200 C 345.585 213.340,344.225 209.290,343.560 207.200 C 342.895 205.110,342.031 202.500,341.641 201.400 C 340.653 198.616,339.412 194.411,338.396 190.400 C 337.922 188.530,337.206 185.920,336.803 184.600 C 336.401 183.280,335.952 181.300,335.806 180.200 C 335.659 179.100,335.298 177.120,335.003 175.800 C 330.513 155.707,329.722 128.233,333.241 114.600 C 333.469 113.720,333.899 111.920,334.199 110.600 C 334.813 107.890,335.755 105.011,336.855 102.489 C 337.265 101.548,337.600 100.496,337.600 100.151 C 337.600 99.806,337.857 99.046,338.171 98.462 C 338.486 97.878,339.740 95.330,340.958 92.800 C 343.241 88.061,345.248 84.300,346.617 82.198 C 348.811 78.829,352.250 74.319,354.394 72.000 C 356.939 69.247,357.308 68.128,356.069 66.916 C 355.667 66.522,354.823 65.480,354.192 64.600 C 353.562 63.720,352.853 62.820,352.617 62.600 C 351.983 62.008,345.554 54.114,342.051 49.627 C 340.373 47.477,338.100 44.683,337.000 43.418 C 335.900 42.153,334.837 40.833,334.639 40.485 C 334.440 40.137,333.388 38.760,332.301 37.426 C 327.180 31.141,322.526 25.382,321.809 24.439 C 321.373 23.868,320.113 22.309,319.009 20.975 C 317.904 19.641,316.460 17.860,315.800 17.017 C 315.140 16.174,313.700 14.384,312.600 13.039 C 311.500 11.695,309.932 9.763,309.115 8.748 C 307.167 6.326,306.420 6.168,304.522 7.773 M315.600 9.429 C 315.600 9.853,316.836 10.897,317.067 10.667 C 317.192 10.541,317.017 10.160,316.676 9.819 C 316.041 9.184,315.600 9.024,315.600 9.429 M178.800 12.000 C 178.800 12.220,179.070 12.400,179.400 12.400 C 179.730 12.400,180.000 12.220,180.000 12.000 C 180.000 11.780,179.730 11.600,179.400 11.600 C 179.070 11.600,178.800 11.780,178.800 12.000 M319.600 14.167 C 319.600 14.588,320.805 15.728,321.021 15.512 C 321.122 15.411,320.844 15.002,320.402 14.602 C 319.961 14.203,319.600 14.007,319.600 14.167 M232.800 16.000 C 232.800 16.220,233.070 16.400,233.400 16.400 C 233.730 16.400,234.000 16.220,234.000 16.000 C 234.000 15.780,233.730 15.600,233.400 15.600 C 233.070 15.600,232.800 15.780,232.800 16.000 M235.600 16.825 C 235.600 17.280,236.675 17.327,236.949 16.883 C 237.056 16.709,236.797 16.540,236.372 16.508 C 235.948 16.476,235.600 16.619,235.600 16.825 M77.002 17.998 C 76.603 18.439,76.407 18.800,76.567 18.800 C 76.988 18.800,78.128 17.595,77.912 17.379 C 77.811 17.278,77.402 17.556,77.002 17.998 M127.200 17.600 C 127.200 17.820,127.470 18.000,127.800 18.000 C 128.130 18.000,128.400 17.820,128.400 17.600 C 128.400 17.380,128.130 17.200,127.800 17.200 C 127.470 17.200,127.200 17.380,127.200 17.600 M131.384 18.425 C 131.257 18.631,131.513 18.800,131.953 18.800 C 132.996 18.800,133.377 18.184,132.380 18.108 C 131.960 18.077,131.512 18.219,131.384 18.425 M155.052 18.485 C 155.327 18.929,156.305 18.877,156.598 18.403 C 156.740 18.174,156.423 18.040,155.851 18.088 C 155.305 18.133,154.945 18.312,155.052 18.485 M243.800 18.400 C 243.936 18.620,244.487 18.800,245.024 18.800 C 245.561 18.800,246.000 18.620,246.000 18.400 C 246.000 18.180,245.449 18.000,244.776 18.000 C 244.063 18.000,243.656 18.167,243.800 18.400 M267.852 18.485 C 268.127 18.929,269.105 18.877,269.398 18.403 C 269.540 18.174,269.223 18.040,268.651 18.088 C 268.105 18.133,267.745 18.312,267.852 18.485 M139.200 19.200 C 139.200 19.420,139.650 19.600,140.200 19.600 C 140.750 19.600,141.200 19.420,141.200 19.200 C 141.200 18.980,140.750 18.800,140.200 18.800 C 139.650 18.800,139.200 18.980,139.200 19.200 M142.600 19.200 L 141.400 19.505 142.800 19.513 C 143.570 19.517,144.650 19.376,145.200 19.200 C 146.599 18.752,144.361 18.752,142.600 19.200 M253.862 19.100 C 253.760 19.265,254.469 19.400,255.438 19.400 C 256.407 19.400,257.200 19.265,257.200 19.100 C 257.200 18.935,256.491 18.800,255.624 18.800 C 254.757 18.800,253.964 18.935,253.862 19.100 M54.602 45.998 C 54.203 46.439,54.007 46.800,54.167 46.800 C 54.588 46.800,55.728 45.595,55.512 45.379 C 55.411 45.278,55.002 45.556,54.602 45.998 M50.493 50.800 C 50.218 51.240,50.098 51.600,50.225 51.600 C 50.525 51.600,51.600 50.527,51.600 50.229 C 51.600 49.720,50.962 50.049,50.493 50.800 M349.200 51.029 C 349.200 51.327,350.275 52.400,350.575 52.400 C 350.702 52.400,350.582 52.040,350.307 51.600 C 349.838 50.849,349.200 50.520,349.200 51.029 M48.060 53.842 C 47.762 54.178,47.599 54.532,47.695 54.629 C 47.792 54.726,48.198 54.444,48.598 54.002 C 48.997 53.561,49.161 53.207,48.962 53.215 C 48.763 53.224,48.357 53.505,48.060 53.842 M162.923 74.842 C 164.506 75.086,167.510 75.724,169.600 76.260 C 174.649 77.556,179.527 77.874,182.400 77.095 C 183.610 76.767,184.870 76.431,185.200 76.349 C 186.242 76.090,185.649 77.568,183.367 80.920 C 180.594 84.991,180.602 85.322,183.500 86.391 C 194.418 90.418,193.994 89.990,189.464 92.416 C 187.755 93.332,187.702 94.138,189.279 95.231 C 196.594 100.300,196.671 100.401,194.000 101.361 C 190.825 102.503,190.962 103.189,195.857 110.671 C 199.562 116.333,199.953 116.563,201.325 113.882 C 201.686 113.177,202.523 111.700,203.185 110.600 C 208.188 102.286,208.222 102.108,204.980 101.151 C 202.664 100.467,202.757 100.309,207.227 97.301 C 212.578 93.701,212.425 93.980,210.012 92.209 C 208.886 91.382,208.023 90.532,208.094 90.318 C 208.192 90.025,217.758 85.600,218.295 85.600 C 219.051 85.600,217.787 83.464,215.215 80.398 C 211.748 76.264,211.335 75.355,213.100 75.739 C 213.705 75.871,215.910 76.351,218.000 76.806 C 225.899 78.527,232.475 78.280,241.200 75.938 C 249.572 73.690,257.739 75.024,262.398 79.398 C 263.799 80.713,265.473 81.805,267.000 82.399 C 274.899 85.469,276.496 87.712,271.100 88.157 C 265.254 88.639,261.901 90.096,265.424 90.624 C 271.624 91.554,276.535 89.575,283.116 83.492 C 290.105 77.032,292.577 76.680,289.998 82.512 C 287.316 88.575,281.176 92.993,273.200 94.600 C 272.430 94.755,271.080 95.035,270.200 95.221 C 268.568 95.566,261.635 96.466,254.800 97.220 C 230.720 99.876,223.924 105.314,220.828 124.400 C 219.279 133.949,222.127 139.624,227.160 137.020 C 229.709 135.703,229.814 135.190,229.668 124.764 C 229.512 113.575,229.638 113.102,233.820 109.270 C 239.195 104.345,243.980 103.086,259.290 102.567 L 267.036 102.305 267.807 104.016 C 271.423 112.035,277.402 112.680,285.075 105.879 C 290.250 101.291,295.391 94.523,301.484 84.276 C 307.460 74.228,316.791 76.891,314.783 88.072 C 311.401 106.900,298.907 116.691,275.800 118.619 C 267.313 119.328,267.200 119.348,267.200 120.145 C 267.200 121.420,275.957 123.200,282.235 123.200 C 288.703 123.200,290.289 122.581,297.200 117.363 C 304.496 111.853,307.552 110.588,311.163 111.580 C 316.877 113.151,316.493 118.346,310.197 124.642 C 300.949 133.890,291.376 135.258,272.400 130.043 C 268.554 128.986,268.370 128.998,269.986 130.190 C 280.132 137.675,297.648 139.429,309.132 134.109 C 315.136 131.328,319.595 132.824,319.599 137.622 C 319.607 147.597,296.572 150.033,274.480 142.393 C 269.724 140.748,269.691 140.850,273.674 144.905 C 283.289 154.692,289.549 157.080,300.673 155.202 C 308.785 153.833,312.375 154.355,314.400 157.201 C 317.442 161.472,314.096 166.242,306.253 168.817 C 300.346 170.756,294.715 169.400,283.505 163.339 C 282.903 163.013,279.663 160.820,276.305 158.465 C 265.449 150.851,264.758 150.762,271.700 157.870 C 280.460 166.840,288.127 172.396,294.600 174.464 C 295.260 174.675,299.049 174.992,303.020 175.169 C 311.067 175.528,312.945 176.030,314.889 178.341 C 320.639 185.175,309.319 192.501,298.313 189.069 C 292.353 187.211,288.127 184.277,277.842 174.859 C 270.069 167.740,262.800 162.274,262.800 163.549 C 262.800 164.508,276.126 179.018,282.800 185.326 C 292.122 194.135,294.288 195.198,303.786 195.624 C 313.362 196.054,315.943 197.279,316.608 201.712 C 317.971 210.800,304.452 215.027,293.952 208.797 C 287.746 205.115,285.029 202.388,273.003 187.772 C 266.840 180.280,259.307 172.960,258.545 173.722 C 258.069 174.198,272.934 195.141,280.177 204.200 C 290.849 217.546,293.835 219.417,306.035 220.403 C 314.356 221.075,317.247 223.014,317.322 227.972 C 317.405 233.453,308.357 236.735,297.157 235.285 C 288.763 234.199,281.962 226.927,272.203 208.600 C 264.499 194.131,258.385 186.840,250.753 183.020 C 247.631 181.456,245.600 180.799,245.600 181.351 C 245.600 182.229,253.788 198.946,256.008 202.600 C 260.870 210.603,266.137 216.686,271.796 220.833 C 277.480 224.999,277.200 224.710,277.200 226.399 C 277.200 228.411,275.772 228.935,270.192 228.973 C 261.459 229.032,258.195 225.823,251.305 210.400 C 245.933 198.378,241.924 193.817,235.716 192.665 C 233.083 192.176,233.273 192.542,240.100 201.075 C 242.604 204.205,244.000 206.295,244.000 206.913 C 244.000 211.407,235.545 209.242,229.737 203.259 C 226.916 200.355,226.309 200.506,227.422 203.834 C 230.869 214.140,241.521 224.258,257.709 232.600 L 261.590 234.600 261.595 237.925 C 261.604 243.903,264.276 247.468,271.403 251.009 C 276.218 253.402,276.966 253.370,279.069 250.677 C 285.154 242.885,295.218 240.483,298.200 246.110 C 299.121 247.848,298.748 248.382,296.600 248.395 C 294.210 248.411,291.027 251.412,291.293 253.400 C 291.424 254.379,292.391 254.385,295.911 253.430 C 300.604 252.156,306.046 254.656,307.019 258.532 C 307.407 260.077,307.309 260.098,303.799 259.200 C 300.094 258.252,298.546 258.700,296.875 261.200 C 295.890 262.674,295.890 262.692,296.791 267.600 C 297.859 273.420,296.194 277.573,291.630 280.467 C 288.236 282.619,287.246 281.914,289.200 278.738 C 291.586 274.861,290.659 272.326,287.151 273.136 C 283.308 274.023,280.800 273.337,280.800 271.400 C 280.800 270.422,280.165 270.709,279.027 272.200 L 277.959 273.600 274.639 273.600 C 269.599 273.600,267.074 275.734,268.352 278.914 C 269.489 281.743,269.489 281.744,267.710 281.505 C 260.253 280.505,259.609 271.947,266.412 264.254 C 269.946 260.258,271.328 261.190,252.000 254.528 C 243.662 251.655,243.558 251.593,236.295 245.288 C 226.129 236.462,224.523 235.088,220.590 231.861 C 218.604 230.232,216.737 228.606,216.441 228.249 C 214.169 225.512,214.427 229.503,216.835 234.364 C 221.126 243.023,231.586 250.341,248.912 256.805 C 252.968 258.318,253.191 258.533,252.010 259.789 C 248.301 263.737,241.785 264.099,232.319 260.883 C 224.754 258.313,226.737 261.504,235.716 266.348 C 241.989 269.733,244.472 272.043,245.029 275.012 C 246.078 280.604,239.371 280.343,224.082 274.196 C 222.038 273.374,220.267 272.799,220.148 272.918 C 219.532 273.535,221.877 276.711,226.115 281.000 C 234.991 289.983,235.727 294.600,228.285 294.600 C 223.023 294.600,220.779 292.621,216.126 283.877 C 212.406 276.885,212.543 276.760,212.176 287.482 C 211.812 298.117,212.318 300.393,216.043 304.872 C 218.092 307.335,218.037 307.677,215.096 310.768 C 208.308 317.905,201.177 325.536,200.210 326.700 C 198.424 328.848,199.285 329.669,185.500 312.669 C 181.032 307.159,181.090 307.354,183.163 304.872 C 187.822 299.294,189.423 294.095,189.675 283.725 C 189.816 277.909,189.939 277.900,185.281 284.079 C 178.588 292.959,176.379 294.600,171.121 294.600 C 167.683 294.600,167.490 294.552,166.565 293.478 C 164.060 290.565,165.688 287.794,174.648 279.727 C 180.528 274.432,181.099 271.953,175.976 273.957 C 161.202 279.737,154.400 280.400,154.400 276.059 C 154.400 272.835,157.482 269.671,163.738 266.472 C 167.393 264.603,170.525 262.346,171.738 260.707 C 172.888 259.152,172.514 259.080,169.375 260.257 C 158.785 264.224,152.391 264.083,148.437 259.794 C 146.112 257.271,146.378 256.583,149.840 256.164 C 151.823 255.924,153.939 255.413,155.400 254.819 C 155.840 254.641,157.498 254.010,159.086 253.418 C 167.227 250.379,176.004 243.105,183.242 233.400 C 186.592 228.908,187.119 227.562,185.735 227.030 C 185.000 226.748,184.718 226.976,178.600 232.807 C 176.400 234.903,171.991 239.044,168.801 242.009 C 165.612 244.974,161.562 248.772,159.801 250.449 C 156.278 253.805,156.965 253.528,148.000 255.212 C 143.723 256.015,139.548 256.854,133.874 258.049 C 131.146 258.624,131.120 258.854,133.363 262.685 C 134.602 264.802,135.973 267.641,137.144 270.519 C 139.250 275.691,135.269 282.771,132.835 278.183 C 131.523 275.710,129.086 273.015,127.607 272.403 C 126.452 271.924,125.851 271.948,121.553 272.642 C 120.582 272.798,119.672 272.651,118.789 272.194 L 117.473 271.514 116.077 272.993 C 114.768 274.381,114.573 274.457,112.943 274.212 C 108.890 273.605,106.647 277.543,109.554 280.162 C 111.257 281.696,110.573 282.321,107.979 281.601 C 101.978 279.934,100.411 270.830,104.999 264.280 C 107.138 261.226,102.723 258.819,96.534 259.665 C 92.184 260.260,91.860 260.120,92.689 258.009 C 94.376 253.716,98.188 252.280,104.222 253.667 C 108.423 254.632,108.729 254.561,107.999 252.798 C 107.377 251.296,105.073 249.892,101.700 248.960 C 98.769 248.150,98.661 247.780,100.791 245.856 C 106.210 240.960,115.927 243.585,121.236 251.379 C 124.606 256.327,137.600 244.946,137.600 237.047 C 137.600 234.945,137.796 234.763,143.000 232.015 C 156.089 225.103,165.167 216.584,171.158 205.592 C 173.643 201.032,173.105 199.452,170.308 203.100 C 164.477 210.704,155.908 215.165,153.996 211.592 C 153.456 210.583,153.028 211.291,160.488 200.849 C 166.464 192.483,166.591 192.086,162.981 193.014 C 156.641 194.644,153.514 198.630,148.481 211.492 C 144.031 222.866,140.617 227.280,134.943 229.002 C 130.447 230.366,126.897 229.294,123.900 225.669 C 122.237 223.658,122.437 222.950,124.987 221.823 C 134.858 217.457,142.466 207.969,150.181 190.400 C 150.809 188.970,151.671 187.080,152.095 186.200 C 154.506 181.201,154.253 180.476,150.670 182.116 C 141.335 186.390,135.193 193.397,125.877 210.400 C 119.095 222.778,112.118 231.151,106.188 234.028 L 103.400 235.381 97.400 235.368 C 86.024 235.343,80.184 231.521,82.619 225.693 C 84.170 221.981,86.408 220.951,94.130 220.394 C 105.352 219.586,107.696 218.168,117.643 206.175 C 125.926 196.189,141.992 173.600,140.812 173.600 C 138.729 173.600,130.475 181.759,122.401 191.800 C 109.382 207.990,105.478 210.458,93.800 209.886 C 82.798 209.346,78.703 203.962,84.865 198.138 C 86.984 196.136,89.386 195.538,96.600 195.217 C 100.120 195.060,103.360 194.781,103.800 194.596 C 107.253 193.143,117.807 184.426,122.972 178.762 C 124.056 177.573,127.656 173.741,130.972 170.246 C 137.331 163.542,137.609 163.200,136.685 163.200 C 134.999 163.200,128.723 167.987,120.379 175.635 C 105.567 189.214,97.346 192.383,88.200 188.041 C 83.632 185.872,82.148 183.389,83.540 180.242 C 85.236 176.408,87.357 175.605,96.800 175.223 C 107.520 174.790,116.159 170.187,126.213 159.552 C 132.870 152.510,133.304 150.977,127.357 155.512 C 109.090 169.440,98.526 172.579,88.690 167.003 C 84.171 164.441,82.861 159.607,85.897 156.698 C 88.388 154.313,90.970 153.968,98.600 155.004 C 108.362 156.329,109.494 156.242,114.400 153.790 C 118.769 151.607,129.967 141.834,129.097 140.963 C 128.953 140.819,127.126 141.721,125.038 142.967 C 112.339 150.545,103.273 151.810,93.606 147.351 C 85.197 143.472,81.787 139.323,84.010 135.676 C 85.919 132.546,89.211 132.519,98.300 135.560 C 108.389 138.934,116.882 137.818,125.616 131.968 C 129.737 129.209,129.650 128.538,125.363 130.013 C 110.103 135.266,97.554 133.349,88.773 124.424 C 84.479 120.059,83.244 116.347,85.181 113.626 C 88.016 109.645,93.282 110.630,103.400 117.034 C 113.832 123.636,120.047 125.370,125.000 123.059 C 126.777 122.230,130.000 119.290,130.000 118.499 C 130.000 118.334,126.715 118.189,122.700 118.177 C 101.172 118.108,85.895 105.441,85.821 87.600 C 85.763 73.681,94.334 74.354,101.116 88.800 C 101.787 90.230,102.917 92.660,103.627 94.200 C 110.631 109.395,126.149 114.516,132.111 103.599 L 132.822 102.297 140.311 102.558 C 154.650 103.058,158.324 103.844,163.882 107.600 C 169.149 111.159,170.811 115.109,170.021 122.190 C 168.595 134.978,170.897 140.207,175.887 135.518 C 183.140 128.705,180.560 114.289,170.450 105.140 C 165.757 100.894,162.320 99.863,149.200 98.765 C 128.834 97.062,121.143 94.009,110.051 83.226 C 101.437 74.851,107.052 74.686,117.800 82.997 C 126.326 89.591,128.009 90.411,132.962 90.386 C 139.345 90.354,138.772 88.692,132.300 88.464 C 127.262 88.285,127.174 88.169,129.900 85.271 C 132.674 82.322,135.327 81.209,139.600 81.202 C 142.960 81.196,143.040 81.172,146.400 79.187 C 153.975 74.713,156.966 73.926,162.923 74.842 M155.645 79.706 C 154.163 80.473,154.646 81.010,156.718 80.898 C 159.450 80.751,159.993 80.485,159.024 79.771 C 158.075 79.073,156.912 79.051,155.645 79.706 M250.477 79.882 C 248.983 80.173,249.711 80.966,251.793 81.316 C 253.751 81.644,254.979 81.195,254.180 80.442 C 253.675 79.967,251.629 79.657,250.477 79.882 M335.674 127.257 C 335.618 127.991,335.742 128.360,335.991 128.205 C 336.474 127.907,336.538 126.533,336.083 126.251 C 335.909 126.144,335.725 126.596,335.674 127.257 M335.649 146.457 C 335.588 147.788,335.700 148.385,335.979 148.213 C 336.474 147.907,336.551 144.940,336.071 144.644 C 335.889 144.532,335.700 145.348,335.649 146.457 M63.900 149.431 C 63.735 149.597,63.600 150.099,63.600 150.547 C 63.600 151.135,63.721 151.239,64.038 150.922 C 64.278 150.682,64.413 150.180,64.338 149.807 C 64.262 149.433,64.065 149.264,63.900 149.431 M338.000 168.153 C 338.000 168.483,338.180 168.864,338.400 169.000 C 338.620 169.136,338.800 168.977,338.800 168.647 C 338.800 168.317,338.620 167.936,338.400 167.800 C 338.180 167.664,338.000 167.823,338.000 168.153 M61.412 168.917 C 61.241 169.312,61.213 169.747,61.351 169.884 C 61.757 170.290,62.084 169.720,61.897 168.931 C 61.732 168.233,61.710 168.232,61.412 168.917 M58.178 184.035 C 58.031 184.274,58.110 184.670,58.355 184.915 C 58.682 185.242,58.800 185.126,58.800 184.480 C 58.800 183.514,58.592 183.365,58.178 184.035 M53.200 201.000 C 53.200 201.330,53.380 201.600,53.600 201.600 C 53.820 201.600,54.000 201.330,54.000 201.000 C 54.000 200.670,53.820 200.400,53.600 200.400 C 53.380 200.400,53.200 200.670,53.200 201.000 M40.612 240.117 C 40.441 240.512,40.413 240.947,40.551 241.084 C 40.957 241.490,41.284 240.920,41.097 240.131 C 40.932 239.433,40.910 239.432,40.612 240.117 M39.169 246.100 C 38.916 246.928,38.946 247.600,39.235 247.600 C 39.436 247.600,39.600 247.240,39.600 246.800 C 39.600 246.157,39.301 245.671,39.169 246.100 M35.600 262.824 C 35.600 263.277,35.780 263.536,36.000 263.400 C 36.220 263.264,36.400 262.893,36.400 262.576 C 36.400 262.259,36.220 262.000,36.000 262.000 C 35.780 262.000,35.600 262.371,35.600 262.824 M365.200 272.376 C 365.200 272.829,365.380 273.200,365.600 273.200 C 365.820 273.200,366.000 272.941,366.000 272.624 C 366.000 272.307,365.820 271.936,365.600 271.800 C 365.380 271.664,365.200 271.923,365.200 272.376 M34.000 274.000 C 34.000 274.440,34.180 274.800,34.400 274.800 C 34.620 274.800,34.800 274.440,34.800 274.000 C 34.800 273.560,34.620 273.200,34.400 273.200 C 34.180 273.200,34.000 273.560,34.000 274.000 M366.006 279.676 C 366.018 280.681,366.787 281.508,366.794 280.524 C 366.797 280.042,366.620 279.536,366.400 279.400 C 366.180 279.264,366.003 279.388,366.006 279.676 M33.506 281.827 C 33.284 282.049,33.538 284.459,33.813 284.742 C 33.889 284.820,33.941 284.145,33.928 283.242 C 33.905 281.533,33.881 281.453,33.506 281.827 M33.334 291.027 C 33.202 291.372,33.259 291.819,33.460 292.020 C 33.682 292.242,33.859 291.995,33.909 291.393 C 34.001 290.274,33.697 290.081,33.334 291.027 M366.131 294.228 C 366.111 294.983,366.253 295.600,366.447 295.600 C 366.885 295.600,366.918 293.320,366.484 293.052 C 366.310 292.944,366.151 293.474,366.131 294.228 M365.200 301.176 C 365.200 301.629,365.380 302.000,365.600 302.000 C 365.820 302.000,366.000 301.741,366.000 301.424 C 366.000 301.107,365.820 300.736,365.600 300.600 C 365.380 300.464,365.200 300.723,365.200 301.176 M267.800 380.000 C 267.664 380.220,267.823 380.400,268.153 380.400 C 268.483 380.400,268.864 380.220,269.000 380.000 C 269.136 379.780,268.977 379.600,268.647 379.600 C 268.317 379.600,267.936 379.780,267.800 380.000 M145.660 380.593 C 145.793 380.726,146.415 380.928,147.042 381.042 C 147.669 381.156,148.073 381.140,147.940 381.007 C 147.807 380.874,147.185 380.672,146.558 380.558 C 145.931 380.444,145.527 380.460,145.660 380.593 M254.400 380.882 C 254.400 381.353,256.711 381.268,257.009 380.785 C 257.171 380.523,256.740 380.406,255.833 380.467 C 255.045 380.520,254.400 380.707,254.400 380.882 " stroke="none" fill="#2dd2ec" fill-rule="evenodd"></path><path id="path2" d="M90.800 0.798 C 90.800 1.237,89.900 2.515,88.800 3.639 C 87.700 4.762,86.800 5.844,86.800 6.044 C 86.800 6.244,86.260 6.972,85.600 7.663 C 84.940 8.354,84.400 9.086,84.400 9.291 C 84.400 9.495,83.680 10.354,82.800 11.200 C 81.920 12.046,81.200 12.931,81.200 13.168 C 81.200 13.405,80.480 14.341,79.600 15.248 C 78.720 16.155,78.000 17.051,78.000 17.239 C 78.000 17.427,77.100 18.525,76.000 19.678 C 74.900 20.831,74.000 21.915,74.000 22.087 C 74.000 22.259,73.280 23.141,72.400 24.048 C 71.520 24.955,70.800 25.855,70.800 26.048 C 70.800 26.241,70.080 27.141,69.200 28.048 C 68.320 28.955,67.600 29.873,67.600 30.088 C 67.600 30.303,67.060 30.983,66.400 31.600 C 65.740 32.217,65.200 32.887,65.200 33.090 C 65.200 33.293,64.300 34.422,63.200 35.600 C 62.100 36.778,61.200 37.907,61.200 38.110 C 61.200 38.313,60.660 38.983,60.000 39.600 C 59.340 40.217,58.800 40.912,58.800 41.146 C 58.800 41.380,58.440 41.765,58.000 42.000 C 57.560 42.235,57.200 42.652,57.200 42.926 C 57.200 43.199,56.840 43.683,56.400 44.000 C 55.960 44.317,55.600 44.819,55.600 45.114 C 55.600 45.410,54.700 46.529,53.600 47.600 C 52.500 48.671,51.600 49.758,51.600 50.014 C 51.600 50.270,51.060 50.983,50.400 51.600 C 49.740 52.217,49.199 52.874,49.198 53.060 C 49.197 53.247,48.117 54.557,46.798 55.972 C 45.479 57.387,44.400 58.693,44.400 58.876 C 44.400 59.058,43.860 59.772,43.200 60.463 C 42.540 61.154,42.000 61.884,42.000 62.085 C 42.000 62.287,41.100 63.329,40.000 64.400 C 38.900 65.471,38.000 66.630,38.000 66.974 C 38.000 67.318,37.820 67.600,37.600 67.600 C 36.710 67.600,37.238 69.749,38.400 70.860 C 39.060 71.491,39.600 72.194,39.600 72.422 C 39.600 72.937,41.430 74.800,41.936 74.800 C 42.141 74.800,42.631 75.295,43.025 75.900 C 43.419 76.505,44.250 77.477,44.871 78.060 C 45.492 78.644,46.000 79.320,46.000 79.564 C 46.000 79.808,46.540 80.572,47.200 81.263 C 47.860 81.954,48.400 82.722,48.400 82.971 C 48.400 83.220,48.760 83.683,49.200 84.000 C 49.640 84.317,50.000 84.897,50.000 85.288 C 50.000 85.680,50.180 86.000,50.400 86.000 C 50.620 86.000,50.800 86.360,50.800 86.800 C 50.800 87.240,50.935 87.601,51.100 87.603 C 51.437 87.607,52.400 89.525,52.400 90.191 C 52.400 90.429,52.760 90.883,53.200 91.200 C 53.640 91.517,54.000 92.097,54.000 92.488 C 54.000 92.880,54.180 93.200,54.400 93.200 C 54.620 93.200,54.800 93.639,54.800 94.176 C 54.800 94.713,54.980 95.264,55.200 95.400 C 55.420 95.536,55.600 95.997,55.600 96.424 C 55.600 96.851,55.780 97.200,56.000 97.200 C 56.220 97.200,56.400 97.560,56.400 98.000 C 56.400 98.440,56.580 98.800,56.800 98.800 C 57.020 98.800,57.200 99.160,57.200 99.600 C 57.200 100.040,57.380 100.400,57.600 100.400 C 57.820 100.400,58.000 100.940,58.000 101.600 C 58.000 102.260,58.180 102.800,58.400 102.800 C 58.620 102.800,58.800 103.340,58.800 104.000 C 58.800 104.660,58.980 105.200,59.200 105.200 C 59.420 105.200,59.600 105.740,59.600 106.400 C 59.600 107.060,59.780 107.600,60.000 107.600 C 60.220 107.600,60.400 108.140,60.400 108.800 C 60.400 109.460,60.580 110.000,60.800 110.000 C 61.020 110.000,61.200 110.619,61.200 111.376 C 61.200 112.133,61.380 112.864,61.600 113.000 C 61.820 113.136,62.000 113.777,62.000 114.424 C 62.000 115.071,62.180 115.600,62.400 115.600 C 62.620 115.600,62.800 116.399,62.800 117.376 C 62.800 118.353,62.980 119.264,63.200 119.400 C 63.420 119.536,63.600 120.717,63.600 122.024 C 63.600 123.341,63.778 124.400,64.000 124.400 C 64.259 124.400,64.400 129.059,64.400 137.576 C 64.400 145.929,64.254 150.843,64.000 151.000 C 63.779 151.136,63.600 152.930,63.600 155.000 C 63.600 157.070,63.421 158.864,63.200 159.000 C 62.980 159.136,62.800 160.507,62.800 162.047 C 62.800 163.587,62.660 164.761,62.489 164.655 C 62.319 164.550,62.126 165.664,62.062 167.132 C 61.997 168.599,61.777 169.860,61.572 169.933 C 61.368 170.007,61.200 170.757,61.200 171.600 C 61.200 172.443,61.030 173.193,60.822 173.267 C 60.615 173.340,60.404 174.444,60.353 175.719 C 60.303 176.995,60.113 178.130,59.931 178.243 C 59.749 178.355,59.600 179.067,59.600 179.824 C 59.600 180.581,59.420 181.200,59.200 181.200 C 58.980 181.200,58.800 182.111,58.800 183.224 C 58.800 184.471,58.647 185.152,58.400 185.000 C 58.173 184.860,58.000 185.196,58.000 185.776 C 58.000 186.339,57.820 186.800,57.600 186.800 C 57.380 186.800,57.200 187.599,57.200 188.576 C 57.200 189.553,57.020 190.464,56.800 190.600 C 56.580 190.736,56.400 191.377,56.400 192.024 C 56.400 192.671,56.220 193.200,56.000 193.200 C 55.780 193.200,55.600 193.920,55.600 194.800 C 55.600 195.680,55.420 196.400,55.200 196.400 C 54.980 196.400,54.800 196.839,54.800 197.376 C 54.800 197.913,54.620 198.464,54.400 198.600 C 54.180 198.736,54.000 199.467,54.000 200.224 C 54.000 200.981,53.820 201.600,53.600 201.600 C 53.380 201.600,53.200 201.949,53.200 202.376 C 53.200 202.803,53.020 203.264,52.800 203.400 C 52.580 203.536,52.400 204.277,52.400 205.047 C 52.400 205.879,52.238 206.347,52.000 206.200 C 51.767 206.056,51.600 206.463,51.600 207.176 C 51.600 207.849,51.420 208.400,51.200 208.400 C 50.980 208.400,50.800 208.940,50.800 209.600 C 50.800 210.260,50.620 210.800,50.400 210.800 C 50.180 210.800,50.000 211.340,50.000 212.000 C 50.000 212.660,49.820 213.200,49.600 213.200 C 49.380 213.200,49.200 213.740,49.200 214.400 C 49.200 215.060,49.020 215.600,48.800 215.600 C 48.580 215.600,48.400 216.140,48.400 216.800 C 48.400 217.460,48.220 218.000,48.000 218.000 C 47.780 218.000,47.600 218.360,47.600 218.800 C 47.600 219.240,47.420 219.600,47.200 219.600 C 46.980 219.600,46.800 220.219,46.800 220.976 C 46.800 221.733,46.620 222.464,46.400 222.600 C 46.180 222.736,46.000 223.377,46.000 224.024 C 46.000 224.671,45.820 225.200,45.600 225.200 C 45.380 225.200,45.200 225.549,45.200 225.976 C 45.200 226.403,45.020 226.864,44.800 227.000 C 44.580 227.136,44.400 227.687,44.400 228.224 C 44.400 228.761,44.220 229.200,44.000 229.200 C 43.780 229.200,43.600 229.920,43.600 230.800 C 43.600 231.680,43.420 232.400,43.200 232.400 C 42.980 232.400,42.800 233.120,42.800 234.000 C 42.800 234.880,42.620 235.600,42.400 235.600 C 42.180 235.600,42.000 235.949,42.000 236.376 C 42.000 236.803,41.820 237.264,41.600 237.400 C 41.380 237.536,41.200 238.447,41.200 239.424 C 41.200 240.401,41.020 241.200,40.800 241.200 C 40.580 241.200,40.400 241.740,40.400 242.400 C 40.400 243.060,40.220 243.600,40.000 243.600 C 39.780 243.600,39.600 244.500,39.600 245.600 C 39.600 246.700,39.420 247.600,39.200 247.600 C 38.980 247.600,38.800 248.241,38.800 249.024 C 38.800 249.894,38.641 250.349,38.390 250.194 C 38.165 250.055,38.006 250.089,38.037 250.270 C 38.227 251.361,37.945 254.413,37.671 254.244 C 37.489 254.132,37.299 254.976,37.248 256.120 C 37.196 257.264,36.985 258.371,36.777 258.580 C 36.570 258.789,36.400 259.903,36.400 261.056 C 36.400 262.209,36.220 263.264,36.000 263.400 C 35.780 263.536,35.600 264.411,35.600 265.344 C 35.600 266.277,35.375 267.282,35.100 267.579 C 34.694 268.016,34.712 268.058,35.200 267.800 C 35.688 267.542,35.706 267.584,35.300 268.021 C 34.989 268.357,34.800 269.738,34.800 271.680 C 34.800 273.493,34.632 274.800,34.400 274.800 C 34.160 274.800,34.000 276.408,34.000 278.824 C 34.000 281.037,33.844 282.751,33.653 282.633 C 33.463 282.515,33.302 284.033,33.296 286.007 C 33.288 288.584,33.414 289.523,33.743 289.339 C 34.017 289.185,34.000 289.298,33.700 289.621 C 33.086 290.282,33.040 290.946,33.633 290.580 C 33.891 290.420,34.033 290.612,33.986 291.056 C 33.741 293.374,34.046 299.219,34.400 299.000 C 34.620 298.864,34.800 298.928,34.800 299.143 C 34.800 299.358,34.575 299.638,34.300 299.767 C 33.900 299.953,33.900 300.047,34.300 300.233 C 34.588 300.368,34.800 301.206,34.800 302.210 C 34.800 303.168,34.980 304.064,35.200 304.200 C 35.420 304.336,35.600 305.157,35.600 306.024 C 35.600 306.891,35.780 307.600,36.000 307.600 C 36.220 307.600,36.400 308.320,36.400 309.200 C 36.400 310.080,36.580 310.800,36.800 310.800 C 37.020 310.800,37.200 311.340,37.200 312.000 C 37.200 312.660,37.380 313.200,37.600 313.200 C 37.820 313.200,38.000 313.740,38.000 314.400 C 38.000 315.060,38.180 315.600,38.400 315.600 C 38.620 315.600,38.800 316.140,38.800 316.800 C 38.800 317.460,38.980 318.000,39.200 318.000 C 39.420 318.000,39.600 318.360,39.600 318.800 C 39.600 319.240,39.780 319.600,40.000 319.600 C 40.220 319.600,40.400 320.140,40.400 320.800 C 40.400 321.460,40.580 322.000,40.800 322.000 C 41.020 322.000,41.200 322.360,41.200 322.800 C 41.200 323.240,41.380 323.600,41.600 323.600 C 41.820 323.600,42.000 323.960,42.000 324.400 C 42.000 324.840,42.180 325.200,42.400 325.200 C 42.620 325.200,42.800 325.560,42.800 326.000 C 42.800 326.440,42.952 326.800,43.137 326.800 C 43.323 326.800,43.908 327.655,44.437 328.700 C 44.967 329.745,45.535 330.660,45.700 330.733 C 45.865 330.807,46.000 331.172,46.000 331.545 C 46.000 331.918,46.360 332.483,46.800 332.800 C 47.240 333.117,47.600 333.697,47.600 334.088 C 47.600 334.480,47.780 334.800,48.000 334.800 C 48.220 334.800,48.400 335.088,48.400 335.440 C 48.400 335.791,48.940 336.583,49.600 337.200 C 50.260 337.817,50.800 338.537,50.800 338.800 C 50.800 339.063,51.295 339.756,51.900 340.340 C 52.505 340.923,53.255 341.895,53.568 342.500 C 53.880 343.105,54.380 343.600,54.680 343.600 C 54.980 343.600,55.345 343.915,55.492 344.300 C 55.821 345.159,66.339 355.600,66.877 355.600 C 67.089 355.600,67.924 356.275,68.731 357.100 C 69.539 357.925,70.695 358.855,71.300 359.168 C 71.905 359.480,72.400 359.885,72.400 360.068 C 72.400 360.250,72.688 360.400,73.040 360.400 C 73.391 360.400,74.183 360.940,74.800 361.600 C 75.417 362.260,76.137 362.800,76.400 362.800 C 76.663 362.800,77.383 363.340,78.000 364.000 C 78.617 364.660,79.409 365.200,79.760 365.200 C 80.112 365.200,80.400 365.380,80.400 365.600 C 80.400 365.820,80.760 366.000,81.200 366.000 C 81.640 366.000,82.000 366.180,82.000 366.400 C 82.000 366.620,82.360 366.800,82.800 366.800 C 83.240 366.800,83.600 366.980,83.600 367.200 C 83.600 367.420,83.878 367.600,84.217 367.600 C 84.556 367.600,85.220 367.960,85.692 368.400 C 86.164 368.840,86.787 369.200,87.075 369.200 C 87.364 369.200,87.600 369.380,87.600 369.600 C 87.600 369.820,87.960 370.000,88.400 370.000 C 88.840 370.000,89.200 370.180,89.200 370.400 C 89.200 370.620,89.549 370.800,89.976 370.800 C 90.403 370.800,90.864 370.980,91.000 371.200 C 91.136 371.420,91.687 371.600,92.224 371.600 C 92.761 371.600,93.200 371.780,93.200 372.000 C 93.200 372.220,93.560 372.400,94.000 372.400 C 94.440 372.400,94.800 372.580,94.800 372.800 C 94.800 373.020,95.340 373.200,96.000 373.200 C 96.660 373.200,97.200 373.380,97.200 373.600 C 97.200 373.820,97.729 374.000,98.376 374.000 C 99.023 374.000,99.664 374.180,99.800 374.400 C 99.936 374.620,100.487 374.800,101.024 374.800 C 101.561 374.800,102.000 374.980,102.000 375.200 C 102.000 375.420,102.720 375.600,103.600 375.600 C 104.480 375.600,105.200 375.780,105.200 376.000 C 105.200 376.220,105.920 376.400,106.800 376.400 C 107.680 376.400,108.400 376.580,108.400 376.800 C 108.400 377.020,109.199 377.200,110.176 377.200 C 111.153 377.200,112.064 377.380,112.200 377.600 C 112.336 377.820,113.337 378.000,114.424 378.000 C 115.511 378.000,116.400 378.180,116.400 378.400 C 116.400 378.633,117.733 378.800,119.600 378.800 C 121.467 378.800,122.800 378.967,122.800 379.200 C 122.800 379.442,124.533 379.600,127.200 379.600 C 129.620 379.600,131.600 379.760,131.600 379.955 C 131.600 380.150,134.876 380.338,138.880 380.372 C 142.885 380.407,146.350 380.587,146.580 380.773 C 146.811 380.959,150.330 381.140,154.400 381.177 C 158.624 381.215,161.857 381.406,161.933 381.622 C 162.007 381.830,164.032 382.000,166.433 382.000 C 168.835 382.000,170.800 382.152,170.800 382.338 C 170.800 382.524,171.832 382.710,173.093 382.752 C 174.354 382.793,175.560 383.000,175.773 383.213 C 175.986 383.426,176.563 383.600,177.056 383.600 C 177.549 383.600,178.064 383.780,178.200 384.000 C 178.336 384.220,179.067 384.400,179.824 384.400 C 180.581 384.400,181.200 384.580,181.200 384.800 C 181.200 385.020,181.560 385.200,182.000 385.200 C 182.440 385.200,182.800 385.352,182.800 385.537 C 182.800 385.723,183.655 386.304,184.700 386.830 C 185.745 387.356,186.891 388.104,187.247 388.493 C 187.603 388.882,188.188 389.200,188.547 389.200 C 188.906 389.200,189.200 389.476,189.200 389.813 C 189.200 390.149,189.505 390.542,189.879 390.686 C 190.678 390.992,197.200 397.436,197.200 397.919 C 197.200 400.099,200.802 400.604,202.096 398.605 C 202.593 397.838,203.238 397.208,203.529 397.205 C 204.154 397.199,204.790 396.603,205.773 395.100 C 206.168 394.495,206.660 394.000,206.865 394.000 C 207.071 394.000,208.481 392.740,210.000 391.200 C 211.519 389.660,212.952 388.400,213.184 388.400 C 213.417 388.400,214.172 387.860,214.863 387.200 C 215.554 386.540,216.542 386.000,217.059 386.000 C 217.577 386.000,218.000 385.820,218.000 385.600 C 218.000 385.380,218.360 385.200,218.800 385.200 C 219.240 385.200,219.600 385.020,219.600 384.800 C 219.600 384.580,219.939 384.400,220.354 384.400 C 220.769 384.400,221.611 384.139,222.226 383.820 C 222.840 383.502,223.511 383.345,223.716 383.472 C 223.921 383.599,224.208 383.510,224.354 383.275 C 224.499 383.040,225.604 382.807,226.809 382.756 C 228.014 382.706,229.095 382.524,229.211 382.353 C 229.326 382.182,231.264 382.011,233.517 381.972 C 235.770 381.933,237.711 381.743,237.831 381.551 C 237.950 381.358,241.457 381.200,245.624 381.200 C 250.959 381.200,253.200 381.067,253.200 380.751 C 253.200 380.441,253.385 380.456,253.800 380.800 C 254.130 381.074,254.400 381.126,254.400 380.916 C 254.400 380.464,253.877 380.501,261.499 380.405 C 264.853 380.362,267.699 380.164,267.822 379.964 C 267.946 379.764,270.186 379.600,272.800 379.600 C 275.537 379.600,277.658 379.430,277.800 379.200 C 277.936 378.980,279.117 378.800,280.424 378.800 C 281.741 378.800,282.800 378.622,282.800 378.400 C 282.800 378.171,284.000 378.000,285.600 378.000 C 287.200 378.000,288.400 377.829,288.400 377.600 C 288.400 377.380,289.120 377.200,290.000 377.200 C 290.880 377.200,291.600 377.020,291.600 376.800 C 291.600 376.580,292.500 376.400,293.600 376.400 C 294.700 376.400,295.600 376.220,295.600 376.000 C 295.600 375.780,296.140 375.600,296.800 375.600 C 297.460 375.600,298.000 375.420,298.000 375.200 C 298.000 374.980,298.540 374.800,299.200 374.800 C 299.860 374.800,300.400 374.620,300.400 374.400 C 300.400 374.180,300.940 374.000,301.600 374.000 C 302.260 374.000,302.800 373.820,302.800 373.600 C 302.800 373.380,303.239 373.200,303.776 373.200 C 304.313 373.200,304.864 373.020,305.000 372.800 C 305.136 372.580,305.597 372.400,306.024 372.400 C 306.451 372.400,306.800 372.220,306.800 372.000 C 306.800 371.780,307.149 371.600,307.576 371.600 C 308.003 371.600,308.464 371.420,308.600 371.200 C 308.736 370.980,309.287 370.800,309.824 370.800 C 310.361 370.800,310.800 370.620,310.800 370.400 C 310.800 370.180,311.120 370.000,311.512 370.000 C 311.903 370.000,312.483 369.640,312.800 369.200 C 313.117 368.760,313.571 368.400,313.809 368.400 C 314.475 368.400,316.393 367.437,316.397 367.100 C 316.399 366.935,316.760 366.800,317.200 366.800 C 317.640 366.800,318.000 366.620,318.000 366.400 C 318.000 366.180,318.360 366.000,318.800 366.000 C 319.240 366.000,319.600 365.820,319.600 365.600 C 319.600 365.380,319.920 365.200,320.312 365.200 C 320.703 365.200,321.283 364.840,321.600 364.400 C 321.917 363.960,322.425 363.600,322.728 363.600 C 323.031 363.600,323.783 363.060,324.400 362.400 C 325.017 361.740,325.769 361.200,326.072 361.200 C 326.375 361.200,326.883 360.840,327.200 360.400 C 327.517 359.960,328.021 359.600,328.320 359.600 C 328.618 359.600,329.554 358.880,330.400 358.000 C 331.246 357.120,332.140 356.400,332.388 356.400 C 332.636 356.400,334.045 355.176,335.520 353.681 C 336.995 352.185,338.517 350.841,338.901 350.693 C 339.285 350.546,339.600 350.235,339.600 350.002 C 339.600 349.769,341.220 347.958,343.200 345.978 C 345.180 343.998,346.800 342.204,346.800 341.990 C 346.800 341.776,347.520 340.837,348.400 339.903 C 349.280 338.969,350.000 338.018,350.000 337.790 C 350.000 337.563,350.360 337.117,350.800 336.800 C 351.240 336.483,351.600 335.943,351.600 335.600 C 351.600 335.257,351.960 334.717,352.400 334.400 C 352.840 334.083,353.200 333.586,353.200 333.295 C 353.200 333.004,353.560 332.380,354.000 331.908 C 354.440 331.436,354.800 330.813,354.800 330.525 C 354.800 330.236,354.980 330.000,355.200 330.000 C 355.420 330.000,355.600 329.640,355.600 329.200 C 355.600 328.760,355.780 328.400,356.000 328.400 C 356.220 328.400,356.400 328.122,356.400 327.783 C 356.400 327.444,356.760 326.780,357.200 326.308 C 357.640 325.836,358.000 325.213,358.000 324.925 C 358.000 324.636,358.180 324.400,358.400 324.400 C 358.620 324.400,358.800 323.860,358.800 323.200 C 358.800 322.540,358.980 322.000,359.200 322.000 C 359.420 322.000,359.600 321.640,359.600 321.200 C 359.600 320.760,359.780 320.400,360.000 320.400 C 360.220 320.400,360.400 319.860,360.400 319.200 C 360.400 318.540,360.580 318.000,360.800 318.000 C 361.020 318.000,361.200 317.640,361.200 317.200 C 361.200 316.760,361.380 316.400,361.600 316.400 C 361.820 316.400,362.000 315.860,362.000 315.200 C 362.000 314.540,362.180 314.000,362.400 314.000 C 362.620 314.000,362.800 313.460,362.800 312.800 C 362.800 312.140,362.980 311.600,363.200 311.600 C 363.420 311.600,363.600 311.060,363.600 310.400 C 363.600 309.740,363.780 309.200,364.000 309.200 C 364.220 309.200,364.400 308.300,364.400 307.200 C 364.400 306.100,364.580 305.200,364.800 305.200 C 365.023 305.200,365.200 304.125,365.200 302.776 C 365.200 301.263,365.350 300.446,365.600 300.600 C 365.954 300.819,366.059 299.389,366.104 293.711 C 366.108 293.221,366.275 292.923,366.475 293.047 C 366.692 293.180,366.755 290.785,366.631 287.136 C 366.305 277.521,365.977 273.200,365.573 273.200 C 365.368 273.200,365.200 271.681,365.200 269.824 C 365.200 267.967,365.020 266.336,364.800 266.200 C 364.580 266.064,364.400 265.164,364.400 264.200 C 364.400 263.236,364.220 262.336,364.000 262.200 C 363.780 262.064,363.600 260.894,363.600 259.600 C 363.600 258.306,363.420 257.136,363.200 257.000 C 362.980 256.864,362.800 256.133,362.800 255.376 C 362.800 254.619,362.620 254.000,362.400 254.000 C 362.180 254.000,362.000 253.021,362.000 251.824 C 362.000 250.627,361.820 249.536,361.600 249.400 C 361.380 249.264,361.200 248.443,361.200 247.576 C 361.200 246.709,361.020 246.000,360.800 246.000 C 360.580 246.000,360.400 245.280,360.400 244.400 C 360.400 243.520,360.220 242.800,360.000 242.800 C 359.780 242.800,359.600 242.249,359.600 241.576 C 359.600 240.863,359.433 240.456,359.200 240.600 C 358.956 240.751,358.800 240.137,358.800 239.024 C 358.800 238.021,358.620 237.200,358.400 237.200 C 358.180 237.200,358.000 236.761,358.000 236.224 C 358.000 235.687,357.820 235.136,357.600 235.000 C 357.380 234.864,357.200 234.043,357.200 233.176 C 357.200 232.309,357.020 231.600,356.800 231.600 C 356.580 231.600,356.400 231.240,356.400 230.800 C 356.400 230.360,356.220 230.000,356.000 230.000 C 355.780 230.000,355.600 229.381,355.600 228.624 C 355.600 227.867,355.420 227.136,355.200 227.000 C 354.980 226.864,354.800 226.303,354.800 225.753 C 354.800 225.188,354.626 224.860,354.400 225.000 C 354.158 225.149,354.000 224.604,354.000 223.624 C 354.000 222.731,353.864 222.000,353.697 222.000 C 353.331 222.000,352.400 219.133,352.400 218.006 C 352.400 217.563,352.220 217.200,352.000 217.200 C 351.780 217.200,351.600 216.761,351.600 216.224 C 351.600 215.687,351.420 215.136,351.200 215.000 C 350.980 214.864,350.800 214.401,350.800 213.971 C 350.800 213.541,350.592 212.787,350.338 212.295 C 349.315 210.316,349.200 209.964,349.200 208.805 C 349.200 208.142,349.020 207.600,348.800 207.600 C 348.580 207.600,348.400 207.060,348.400 206.400 C 348.400 205.740,348.220 205.200,348.000 205.200 C 347.780 205.200,347.600 204.660,347.600 204.000 C 347.600 203.340,347.420 202.800,347.200 202.800 C 346.980 202.800,346.800 202.260,346.800 201.600 C 346.800 200.940,346.620 200.400,346.400 200.400 C 346.180 200.400,346.000 199.860,346.000 199.200 C 346.000 198.540,345.820 198.000,345.600 198.000 C 345.380 198.000,345.200 197.561,345.200 197.024 C 345.200 196.487,345.020 195.936,344.800 195.800 C 344.580 195.664,344.400 194.843,344.400 193.976 C 344.400 193.109,344.220 192.400,344.000 192.400 C 343.780 192.400,343.600 191.860,343.600 191.200 C 343.600 190.540,343.420 190.000,343.200 190.000 C 342.980 190.000,342.800 189.280,342.800 188.400 C 342.800 187.520,342.620 186.800,342.400 186.800 C 342.180 186.800,342.000 186.271,342.000 185.624 C 342.000 184.977,341.820 184.336,341.600 184.200 C 341.380 184.064,341.200 183.254,341.200 182.400 C 341.200 181.546,341.020 180.736,340.800 180.600 C 340.580 180.464,340.400 179.463,340.400 178.376 C 340.400 177.289,340.237 176.400,340.039 176.400 C 339.840 176.400,339.577 175.545,339.454 174.500 C 339.008 170.701,338.708 169.191,338.358 168.974 C 338.161 168.852,338.000 167.593,338.000 166.176 C 338.000 164.725,337.825 163.600,337.600 163.600 C 337.365 163.600,337.200 162.200,337.200 160.200 C 337.200 158.200,337.035 156.800,336.800 156.800 C 336.580 156.800,336.421 156.665,336.447 156.500 C 336.682 155.014,336.321 148.001,336.020 148.188 C 335.784 148.334,335.630 144.341,335.613 137.639 C 335.597 130.737,335.733 126.765,335.993 126.604 C 336.217 126.466,336.400 125.319,336.400 124.056 C 336.400 122.773,336.621 121.522,336.900 121.221 C 337.300 120.790,337.300 120.739,336.900 120.965 C 336.625 121.120,336.400 121.057,336.400 120.824 C 336.400 120.591,336.580 120.400,336.800 120.400 C 337.020 120.400,337.200 119.500,337.200 118.400 C 337.200 117.300,337.380 116.400,337.600 116.400 C 337.820 116.400,338.000 115.691,338.000 114.824 C 338.000 113.957,338.180 113.136,338.400 113.000 C 338.620 112.864,338.800 112.213,338.800 111.553 C 338.800 110.893,338.944 110.442,339.120 110.551 C 339.296 110.659,339.484 110.085,339.537 109.274 C 339.591 108.463,339.807 107.740,340.018 107.667 C 340.228 107.593,340.400 107.088,340.400 106.543 C 340.400 105.998,340.542 105.640,340.715 105.748 C 340.888 105.855,341.070 105.468,341.117 104.889 C 341.165 104.309,341.384 103.656,341.602 103.438 C 341.821 103.219,342.000 102.626,342.000 102.120 C 342.000 101.614,342.180 101.200,342.400 101.200 C 342.620 101.200,342.800 100.840,342.800 100.400 C 342.800 99.960,342.980 99.600,343.200 99.600 C 343.420 99.600,343.600 99.060,343.600 98.400 C 343.600 97.740,343.780 97.200,344.000 97.200 C 344.220 97.200,344.399 96.975,344.397 96.700 C 344.393 96.067,347.688 89.446,348.096 89.267 C 348.263 89.193,348.400 88.828,348.400 88.455 C 348.400 88.082,348.760 87.517,349.200 87.200 C 349.640 86.883,350.000 86.343,350.000 86.000 C 350.000 85.657,350.360 85.117,350.800 84.800 C 351.240 84.483,351.600 83.903,351.600 83.512 C 351.600 83.120,351.780 82.800,352.000 82.800 C 352.220 82.800,352.400 82.512,352.400 82.160 C 352.400 81.809,352.940 81.017,353.600 80.400 C 354.260 79.783,354.800 79.075,354.800 78.826 C 354.800 78.576,356.600 76.585,358.800 74.400 C 362.659 70.568,364.230 67.600,362.400 67.600 C 362.180 67.600,362.000 67.325,362.000 66.989 C 362.000 66.654,361.185 65.564,360.189 64.568 C 359.192 63.571,358.501 62.560,358.651 62.317 C 358.815 62.052,358.740 61.990,358.462 62.162 C 358.208 62.319,358.000 62.239,358.000 61.984 C 358.000 61.729,357.460 61.017,356.800 60.400 C 356.140 59.783,355.600 59.103,355.600 58.888 C 355.600 58.673,354.880 57.755,354.000 56.848 C 353.120 55.941,352.400 55.041,352.400 54.848 C 352.400 54.655,351.680 53.755,350.800 52.848 C 349.920 51.941,349.200 51.002,349.200 50.760 C 349.200 50.519,348.660 49.817,348.000 49.200 C 347.340 48.583,346.800 47.867,346.800 47.608 C 346.800 47.349,346.080 46.446,345.200 45.600 C 344.320 44.754,343.600 43.890,343.600 43.680 C 343.600 43.469,342.924 42.600,342.098 41.748 C 341.272 40.897,340.153 39.570,339.611 38.800 C 339.069 38.030,337.945 36.739,337.113 35.931 C 336.281 35.124,335.600 34.251,335.600 33.992 C 335.600 33.733,335.060 33.017,334.400 32.400 C 333.740 31.783,333.200 31.099,333.200 30.880 C 333.200 30.661,332.300 29.562,331.200 28.439 C 330.100 27.315,329.200 26.244,329.200 26.057 C 329.200 25.871,328.660 25.154,328.000 24.463 C 327.340 23.772,326.800 23.044,326.800 22.844 C 326.800 22.644,325.900 21.562,324.800 20.439 C 323.700 19.315,322.800 18.239,322.800 18.046 C 322.800 17.854,322.080 16.955,321.200 16.048 C 320.320 15.141,319.600 14.208,319.600 13.974 C 319.600 13.740,318.700 12.671,317.600 11.600 C 316.500 10.529,315.600 9.452,315.600 9.208 C 315.600 8.964,315.147 8.310,314.592 7.756 C 314.038 7.202,313.706 6.552,313.854 6.312 C 314.015 6.051,313.938 5.991,313.662 6.162 C 313.408 6.319,313.200 6.242,313.200 5.992 C 313.200 5.742,312.480 4.846,311.600 4.000 C 310.720 3.154,310.000 2.245,310.000 1.978 C 310.000 -0.392,306.609 -0.496,304.178 1.800 C 303.130 2.790,302.104 3.600,301.897 3.600 C 301.690 3.600,301.017 4.140,300.400 4.800 C 299.783 5.460,299.031 6.000,298.728 6.000 C 298.425 6.000,297.917 6.360,297.600 6.800 C 297.283 7.240,296.769 7.600,296.459 7.600 C 296.148 7.600,295.601 7.915,295.243 8.300 C 294.480 9.120,292.996 10.000,292.377 10.000 C 292.138 10.000,291.671 10.272,291.339 10.604 C 291.007 10.936,290.542 11.088,290.306 10.942 C 290.067 10.794,289.991 10.862,290.136 11.096 C 290.447 11.600,289.306 12.113,288.702 11.739 C 288.451 11.584,288.394 11.666,288.562 11.938 C 288.743 12.231,288.540 12.400,288.007 12.400 C 287.545 12.400,286.780 12.760,286.308 13.200 C 285.836 13.640,285.039 14.000,284.537 14.000 C 284.035 14.000,282.983 14.360,282.200 14.800 C 281.417 15.240,280.151 15.600,279.388 15.600 C 278.625 15.600,278.000 15.759,278.000 15.953 C 278.000 16.508,275.566 17.179,271.097 17.857 C 270.271 17.982,269.495 18.245,269.374 18.442 C 269.023 19.011,267.912 18.872,268.235 18.300 C 268.461 17.900,268.410 17.900,267.979 18.300 C 267.606 18.646,265.862 18.800,262.320 18.800 C 259.504 18.800,257.200 18.935,257.200 19.100 C 257.200 19.265,256.407 19.400,255.438 19.400 C 254.469 19.400,253.760 19.265,253.862 19.100 C 253.964 18.935,251.797 18.800,249.047 18.800 C 246.145 18.800,243.943 18.632,243.800 18.400 C 243.664 18.180,242.743 18.000,241.753 18.000 C 240.655 18.000,240.049 17.844,240.200 17.600 C 240.348 17.360,239.831 17.200,238.904 17.200 C 238.055 17.200,237.118 16.975,236.821 16.700 C 236.390 16.300,236.339 16.300,236.565 16.700 C 236.738 17.007,236.606 17.200,236.224 17.200 C 235.881 17.200,235.600 17.020,235.600 16.800 C 235.600 16.580,234.970 16.400,234.200 16.400 C 233.430 16.400,232.800 16.220,232.800 16.000 C 232.800 15.780,232.361 15.600,231.824 15.600 C 231.287 15.600,230.736 15.420,230.600 15.200 C 230.464 14.980,229.633 14.800,228.753 14.800 C 227.873 14.800,227.240 14.658,227.348 14.485 C 227.455 14.312,227.060 14.130,226.471 14.081 C 225.882 14.033,225.340 13.815,225.267 13.597 C 225.193 13.378,224.788 13.200,224.367 13.200 C 223.945 13.200,223.600 13.020,223.600 12.800 C 223.600 12.580,222.920 12.400,222.088 12.400 C 221.035 12.400,220.402 12.157,220.000 11.600 C 219.661 11.130,218.965 10.800,218.312 10.800 C 217.700 10.800,217.200 10.609,217.200 10.376 C 217.200 10.143,217.047 10.048,216.859 10.164 C 216.671 10.280,216.176 10.116,215.759 9.800 C 215.342 9.484,214.635 9.220,214.188 9.213 C 213.742 9.206,213.117 8.840,212.800 8.400 C 212.483 7.960,211.847 7.600,211.387 7.600 C 210.927 7.600,210.164 7.240,209.692 6.800 C 209.220 6.360,208.556 6.000,208.217 6.000 C 207.878 6.000,207.600 5.820,207.600 5.600 C 207.600 5.380,207.240 5.200,206.800 5.200 C 206.360 5.200,206.000 5.020,206.000 4.800 C 206.000 4.580,205.680 4.400,205.288 4.400 C 204.897 4.400,204.317 4.040,204.000 3.600 C 203.683 3.160,203.103 2.800,202.712 2.800 C 202.320 2.800,202.000 2.620,202.000 2.400 C 202.000 1.630,198.422 1.949,197.508 2.800 C 197.036 3.240,196.357 3.600,196.000 3.600 C 195.643 3.600,194.964 3.960,194.492 4.400 C 194.020 4.840,193.396 5.200,193.105 5.200 C 192.814 5.200,192.317 5.560,192.000 6.000 C 191.683 6.440,191.103 6.800,190.712 6.800 C 190.320 6.800,190.000 6.980,190.000 7.200 C 190.000 7.420,189.651 7.600,189.224 7.600 C 188.797 7.600,188.336 7.780,188.200 8.000 C 188.064 8.220,187.637 8.400,187.252 8.400 C 186.866 8.400,186.164 8.760,185.692 9.200 C 185.220 9.640,184.477 10.000,184.040 10.000 C 183.604 10.000,183.136 10.180,183.000 10.400 C 182.864 10.620,182.403 10.800,181.976 10.800 C 181.549 10.800,181.200 10.980,181.200 11.200 C 181.200 11.420,180.930 11.600,180.600 11.600 C 180.270 11.600,180.000 11.780,180.000 12.000 C 180.000 12.220,179.385 12.400,178.633 12.400 C 177.882 12.400,177.207 12.578,177.133 12.797 C 177.060 13.015,176.518 13.233,175.929 13.281 C 175.340 13.330,174.945 13.512,175.052 13.685 C 175.160 13.858,174.607 14.000,173.824 14.000 C 173.041 14.000,172.400 14.180,172.400 14.400 C 172.400 14.620,171.860 14.800,171.200 14.800 C 170.540 14.800,170.000 14.980,170.000 15.200 C 170.000 15.420,169.561 15.600,169.024 15.600 C 168.487 15.600,167.936 15.780,167.800 16.000 C 167.664 16.220,166.948 16.400,166.210 16.400 C 165.471 16.400,164.807 16.574,164.733 16.786 C 164.660 16.999,163.475 17.206,162.100 17.246 C 160.725 17.287,159.600 17.473,159.600 17.660 C 159.600 17.847,158.981 18.000,158.224 18.000 C 157.467 18.000,156.736 18.180,156.600 18.400 C 156.464 18.620,156.083 18.800,155.753 18.800 C 155.379 18.800,155.266 18.611,155.453 18.300 C 155.685 17.914,155.621 17.905,155.177 18.259 C 154.858 18.513,152.452 18.820,149.800 18.947 C 147.160 19.073,144.190 19.262,143.200 19.366 C 141.768 19.518,141.645 19.489,142.600 19.226 L 143.800 18.895 142.500 18.847 C 141.785 18.821,141.200 18.980,141.200 19.200 C 141.200 19.420,140.750 19.600,140.200 19.600 C 139.650 19.600,139.200 19.420,139.200 19.200 C 139.200 18.970,137.960 18.800,136.280 18.800 C 134.498 18.800,133.150 18.605,132.821 18.300 C 132.390 17.900,132.339 17.900,132.565 18.300 C 132.752 18.631,132.562 18.800,132.000 18.800 C 131.534 18.800,131.264 18.620,131.400 18.400 C 131.553 18.152,130.804 18.000,129.424 18.000 C 128.201 18.000,127.200 17.820,127.200 17.600 C 127.200 17.380,126.570 17.200,125.800 17.200 C 125.030 17.200,124.400 17.020,124.400 16.800 C 124.400 16.580,123.680 16.400,122.800 16.400 C 121.920 16.400,121.200 16.220,121.200 16.000 C 121.200 15.780,120.559 15.600,119.776 15.600 C 118.929 15.600,118.453 15.438,118.600 15.200 C 118.744 14.967,118.337 14.800,117.624 14.800 C 116.951 14.800,116.400 14.664,116.400 14.498 C 116.400 14.331,115.815 13.956,115.100 13.664 C 110.751 11.887,110.000 11.514,110.000 11.132 C 110.000 10.950,109.640 10.800,109.200 10.800 C 108.760 10.800,108.400 10.620,108.400 10.400 C 108.400 10.180,108.040 10.000,107.600 10.000 C 107.160 10.000,106.800 9.820,106.800 9.600 C 106.800 9.380,106.480 9.200,106.088 9.200 C 105.697 9.200,105.117 8.840,104.800 8.400 C 104.483 7.960,103.943 7.600,103.600 7.600 C 103.257 7.600,102.717 7.240,102.400 6.800 C 102.083 6.360,101.575 6.000,101.272 6.000 C 100.969 6.000,100.217 5.460,99.600 4.800 C 98.983 4.140,98.288 3.600,98.054 3.600 C 97.820 3.600,97.435 3.240,97.200 2.800 C 96.965 2.360,96.585 2.000,96.357 2.000 C 95.815 2.000,94.800 0.976,94.800 0.429 C 94.800 0.181,93.956 0.000,92.800 0.000 C 91.068 0.000,90.800 0.107,90.800 0.798 M309.115 8.748 C 309.932 9.763,311.500 11.695,312.600 13.039 C 313.700 14.384,315.140 16.174,315.800 17.017 C 316.460 17.860,317.904 19.641,319.009 20.975 C 320.113 22.309,321.373 23.868,321.809 24.439 C 322.526 25.382,327.180 31.141,332.301 37.426 C 333.388 38.760,334.440 40.137,334.639 40.485 C 334.837 40.833,335.900 42.153,337.000 43.418 C 338.100 44.683,340.373 47.477,342.051 49.627 C 345.554 54.114,351.983 62.008,352.617 62.600 C 352.853 62.820,353.562 63.720,354.192 64.600 C 354.823 65.480,355.667 66.522,356.069 66.916 C 357.308 68.128,356.939 69.247,354.394 72.000 C 352.250 74.319,348.811 78.829,346.617 82.198 C 345.248 84.300,343.241 88.061,340.958 92.800 C 339.740 95.330,338.486 97.878,338.171 98.462 C 337.857 99.046,337.600 99.806,337.600 100.151 C 337.600 100.496,337.265 101.548,336.855 102.489 C 335.755 105.011,334.813 107.890,334.199 110.600 C 333.899 111.920,333.469 113.720,333.241 114.600 C 329.722 128.233,330.513 155.707,335.003 175.800 C 335.298 177.120,335.659 179.100,335.806 180.200 C 335.952 181.300,336.401 183.280,336.803 184.600 C 337.206 185.920,337.922 188.530,338.396 190.400 C 339.412 194.411,340.653 198.616,341.641 201.400 C 342.031 202.500,342.895 205.110,343.560 207.200 C 344.225 209.290,345.585 213.340,346.583 216.200 C 347.581 219.060,348.567 222.030,348.774 222.800 C 348.981 223.570,349.790 226.000,350.571 228.200 C 351.353 230.400,351.994 232.467,351.996 232.792 C 351.998 233.118,352.339 234.288,352.754 235.392 C 353.692 237.888,354.903 242.013,355.928 246.200 C 356.359 247.960,356.915 250.210,357.163 251.200 C 357.412 252.190,357.805 254.080,358.037 255.400 C 358.269 256.720,358.729 258.899,359.058 260.243 C 359.388 261.586,359.822 264.196,360.023 266.043 C 360.223 267.889,360.576 270.480,360.806 271.800 C 362.039 278.882,361.921 297.623,360.618 301.764 C 360.278 302.844,360.000 304.284,360.000 304.964 C 360.000 308.362,354.865 321.263,351.093 327.340 C 350.021 329.068,349.033 330.778,348.897 331.140 C 347.233 335.580,329.843 353.222,322.800 357.614 C 321.590 358.369,319.821 359.574,318.869 360.293 C 317.918 361.012,316.942 361.600,316.701 361.600 C 316.460 361.600,315.979 361.849,315.631 362.154 C 314.764 362.914,304.739 368.000,304.107 368.000 C 303.826 368.000,302.925 368.360,302.104 368.800 C 301.284 369.240,300.285 369.600,299.886 369.600 C 299.487 369.600,298.648 369.865,298.022 370.189 C 296.948 370.744,293.926 371.535,289.400 372.444 C 288.300 372.665,285.851 373.196,283.958 373.623 C 282.065 374.050,279.532 374.400,278.328 374.400 C 277.124 374.400,274.263 374.660,271.970 374.978 C 269.676 375.297,261.680 375.750,254.200 375.986 C 246.720 376.222,239.430 376.587,238.000 376.797 C 236.570 377.006,233.240 377.299,230.600 377.447 C 227.763 377.605,224.838 378.019,223.448 378.458 C 222.154 378.866,220.782 379.200,220.399 379.200 C 217.804 379.200,209.784 384.600,203.720 390.431 C 199.991 394.016,199.750 394.007,196.001 390.120 C 187.767 381.582,179.901 377.986,168.176 377.401 C 165.523 377.269,162.193 376.987,160.776 376.775 C 159.359 376.563,152.710 376.211,146.000 375.994 C 139.290 375.776,131.280 375.340,128.200 375.026 C 125.120 374.711,121.340 374.333,119.800 374.186 C 118.260 374.039,116.280 373.687,115.400 373.403 C 114.520 373.119,112.746 372.774,111.458 372.635 C 110.170 372.497,108.775 372.201,108.359 371.978 C 107.943 371.756,106.567 371.386,105.301 371.156 C 104.036 370.926,102.601 370.482,102.114 370.169 C 101.627 369.856,100.955 369.600,100.622 369.600 C 98.969 369.600,88.364 364.729,84.000 361.965 C 83.450 361.617,81.740 360.546,80.200 359.585 C 78.660 358.624,77.130 357.601,76.800 357.313 C 76.470 357.024,75.190 356.025,73.956 355.092 C 66.512 349.465,54.978 337.345,51.400 331.390 C 47.995 325.722,45.540 321.032,44.078 317.400 C 43.635 316.300,42.896 314.467,42.436 313.326 C 41.976 312.185,41.594 310.835,41.586 310.326 C 41.579 309.817,41.225 308.680,40.800 307.800 C 40.375 306.920,40.021 305.464,40.014 304.564 C 40.006 303.664,39.709 302.044,39.354 300.964 C 38.526 298.451,38.098 280.878,38.759 276.600 C 38.998 275.060,39.387 272.000,39.624 269.800 C 39.861 267.600,40.403 264.308,40.827 262.485 C 41.252 260.662,41.600 258.592,41.600 257.884 C 41.600 257.176,41.960 255.339,42.400 253.800 C 42.840 252.261,43.200 250.603,43.200 250.115 C 43.200 249.627,43.494 248.367,43.854 247.314 C 44.214 246.261,44.739 244.410,45.021 243.200 C 45.303 241.990,45.923 239.740,46.399 238.200 C 46.874 236.660,47.528 234.410,47.851 233.200 C 48.175 231.990,48.605 230.640,48.807 230.200 C 49.353 229.011,52.376 220.037,52.830 218.258 C 53.046 217.410,53.488 216.204,53.811 215.578 C 54.135 214.952,54.400 214.113,54.400 213.714 C 54.400 213.315,54.760 212.316,55.200 211.496 C 55.640 210.675,56.000 209.721,56.000 209.376 C 56.000 209.031,56.338 207.905,56.750 206.874 C 57.163 205.843,57.899 203.560,58.387 201.800 C 58.875 200.040,59.617 197.697,60.037 196.592 C 60.457 195.488,60.797 194.318,60.794 193.992 C 60.789 193.439,61.413 191.241,63.243 185.372 C 63.659 184.036,64.000 182.369,64.000 181.667 C 64.000 180.964,64.360 179.091,64.800 177.503 C 65.240 175.915,65.600 174.157,65.600 173.595 C 65.600 173.034,65.869 171.590,66.197 170.387 C 66.525 169.184,66.976 166.256,67.200 163.880 C 67.424 161.503,67.886 157.942,68.227 155.965 C 69.158 150.574,69.224 124.789,68.316 121.400 C 67.963 120.080,67.549 118.100,67.396 117.000 C 66.969 113.913,64.736 106.097,62.887 101.219 C 58.614 89.939,52.137 78.849,45.879 72.098 C 42.923 68.909,42.807 68.406,44.567 66.400 C 45.049 65.850,46.191 64.410,47.105 63.200 C 48.018 61.990,49.179 60.550,49.683 60.000 C 50.187 59.450,51.376 57.958,52.325 56.685 C 53.273 55.411,55.175 53.071,56.551 51.485 C 57.926 49.898,59.804 47.610,60.724 46.400 C 61.643 45.190,63.071 43.363,63.898 42.340 C 72.050 32.245,85.719 15.265,88.725 11.500 C 93.208 5.884,93.271 5.865,97.200 9.000 C 98.717 10.210,100.090 11.200,100.253 11.200 C 100.415 11.200,100.920 11.531,101.374 11.936 C 102.493 12.933,107.221 15.567,110.400 16.964 C 111.830 17.593,113.180 18.247,113.400 18.417 C 113.816 18.740,118.179 20.162,123.000 21.546 C 130.998 23.842,146.294 24.852,154.200 23.606 C 163.325 22.168,167.704 21.207,170.874 19.946 C 171.905 19.535,173.127 19.200,173.590 19.200 C 174.053 19.200,175.138 18.840,176.000 18.400 C 176.862 17.960,177.822 17.600,178.133 17.600 C 178.713 17.600,181.364 16.556,184.200 15.211 C 192.666 11.196,194.821 10.122,196.760 8.953 C 199.826 7.104,200.572 7.201,205.740 10.114 C 208.193 11.496,212.180 13.492,214.600 14.549 C 217.020 15.606,219.540 16.706,220.200 16.994 C 222.567 18.026,231.036 20.722,232.800 21.005 C 233.790 21.163,234.933 21.468,235.339 21.682 C 235.746 21.895,237.816 22.338,239.939 22.665 C 242.063 22.992,244.700 23.413,245.800 23.600 C 248.560 24.071,265.392 24.053,267.600 23.577 C 268.590 23.363,270.840 22.927,272.600 22.607 C 274.360 22.287,276.520 21.757,277.400 21.430 C 278.280 21.103,279.472 20.827,280.049 20.818 C 283.561 20.759,298.715 12.681,304.522 7.773 C 306.420 6.168,307.167 6.326,309.115 8.748 M158.700 74.682 C 159.195 74.778,160.005 74.778,160.500 74.682 C 160.995 74.587,160.590 74.509,159.600 74.509 C 158.610 74.509,158.205 74.587,158.700 74.682 M227.705 78.287 C 228.314 78.379,229.214 78.377,229.705 78.282 C 230.197 78.187,229.700 78.111,228.600 78.114 C 227.500 78.117,227.097 78.195,227.705 78.287 M109.200 82.600 C 109.946 83.370,110.647 84.000,110.757 84.000 C 110.867 84.000,110.346 83.370,109.600 82.600 C 108.854 81.830,108.153 81.200,108.043 81.200 C 107.933 81.200,108.454 81.830,109.200 82.600 M140.100 81.476 C 140.485 81.576,141.115 81.576,141.500 81.476 C 141.885 81.375,141.570 81.293,140.800 81.293 C 140.030 81.293,139.715 81.375,140.100 81.476 M130.175 84.900 L 129.000 86.200 130.300 85.025 C 131.512 83.930,131.784 83.600,131.475 83.600 C 131.406 83.600,130.821 84.185,130.175 84.900 M131.900 88.282 C 132.395 88.378,133.205 88.378,133.700 88.282 C 134.195 88.187,133.790 88.109,132.800 88.109 C 131.810 88.109,131.405 88.187,131.900 88.282 M137.382 89.171 C 137.508 89.375,137.235 89.662,136.776 89.808 C 136.316 89.954,136.028 90.161,136.136 90.269 C 136.422 90.555,138.000 89.639,138.000 89.186 C 138.000 88.974,137.809 88.800,137.576 88.800 C 137.343 88.800,137.256 88.967,137.382 89.171 M146.900 98.676 C 147.285 98.776,147.915 98.776,148.300 98.676 C 148.685 98.575,148.370 98.493,147.600 98.493 C 146.830 98.493,146.515 98.575,146.900 98.676 M147.700 103.076 C 148.085 103.176,148.715 103.176,149.100 103.076 C 149.485 102.975,149.170 102.893,148.400 102.893 C 147.630 102.893,147.315 102.975,147.700 103.076 M250.900 103.076 C 251.285 103.176,251.915 103.176,252.300 103.076 C 252.685 102.975,252.370 102.893,251.600 102.893 C 250.830 102.893,250.515 102.975,250.900 103.076 M305.775 106.500 L 304.600 107.800 305.900 106.625 C 306.615 105.979,307.200 105.394,307.200 105.325 C 307.200 105.016,306.870 105.288,305.775 106.500 M94.383 107.700 C 95.364 108.745,96.219 109.600,96.283 109.600 C 96.584 109.600,96.266 109.241,94.500 107.583 L 92.600 105.800 94.383 107.700 M170.109 118.800 C 170.109 119.790,170.187 120.195,170.282 119.700 C 170.378 119.205,170.378 118.395,170.282 117.900 C 170.187 117.405,170.109 117.810,170.109 118.800 M129.329 117.881 C 129.816 118.007,129.975 118.291,129.806 118.735 C 129.613 119.242,129.664 119.289,130.021 118.935 C 130.612 118.349,130.170 117.585,129.276 117.646 C 128.696 117.686,128.704 117.720,129.329 117.881 M124.900 118.276 C 125.285 118.376,125.915 118.376,126.300 118.276 C 126.685 118.175,126.370 118.093,125.600 118.093 C 124.830 118.093,124.515 118.175,124.900 118.276 M281.900 123.482 C 282.395 123.578,283.205 123.578,283.700 123.482 C 284.195 123.387,283.790 123.309,282.800 123.309 C 281.810 123.309,281.405 123.387,281.900 123.482 M229.701 127.000 C 229.705 127.880,229.787 128.193,229.883 127.695 C 229.979 127.198,229.975 126.478,229.875 126.095 C 229.775 125.713,229.696 126.120,229.701 127.000 M128.400 128.825 C 127.644 129.048,127.586 129.130,128.162 129.160 C 128.907 129.199,128.907 129.221,128.178 130.100 C 127.695 130.682,127.842 130.616,128.595 129.912 C 129.907 128.684,129.856 128.396,128.400 128.825 M268.400 129.100 C 268.400 129.265,268.833 129.400,269.362 129.400 C 269.891 129.400,270.240 129.265,270.138 129.100 C 270.036 128.935,269.603 128.800,269.176 128.800 C 268.749 128.800,268.400 128.935,268.400 129.100 M289.700 133.076 C 290.085 133.176,290.715 133.176,291.100 133.076 C 291.485 132.975,291.170 132.893,290.400 132.893 C 289.630 132.893,289.315 132.975,289.700 133.076 M292.500 137.476 C 292.885 137.576,293.515 137.576,293.900 137.476 C 294.285 137.375,293.970 137.293,293.200 137.293 C 292.430 137.293,292.115 137.375,292.500 137.476 M129.492 140.037 C 129.102 140.264,128.899 140.637,129.041 140.866 C 129.183 141.096,127.882 142.753,126.149 144.550 C 123.042 147.772,123.049 147.768,126.686 144.208 C 130.875 140.108,131.844 138.667,129.492 140.037 M103.100 149.889 C 103.815 149.978,104.985 149.978,105.700 149.889 C 106.415 149.801,105.830 149.728,104.400 149.728 C 102.970 149.728,102.385 149.801,103.100 149.889 M131.144 152.401 C 130.496 152.951,130.419 153.125,130.900 152.958 C 131.722 152.672,131.800 153.075,131.100 153.991 C 130.825 154.350,131.095 154.101,131.700 153.437 C 133.389 151.584,132.989 150.837,131.144 152.401 M265.600 151.725 C 265.600 151.794,266.185 152.378,266.900 153.022 C 267.615 153.667,267.975 153.934,267.700 153.617 C 267.425 153.300,267.200 152.885,267.200 152.696 C 267.200 152.507,267.425 152.467,267.700 152.606 C 267.975 152.745,267.851 152.576,267.424 152.230 C 266.747 151.681,265.600 151.364,265.600 151.725 M271.200 157.800 C 273.060 159.670,274.672 161.200,274.782 161.200 C 274.892 161.200,273.460 159.670,271.600 157.800 C 269.740 155.930,268.128 154.400,268.018 154.400 C 267.908 154.400,269.340 155.930,271.200 157.800 M137.078 162.656 C 136.937 162.796,136.913 163.059,137.024 163.238 C 137.273 163.642,138.400 163.248,138.400 162.757 C 138.400 162.347,137.459 162.275,137.078 162.656 M262.200 163.600 C 262.598 164.040,262.992 164.400,263.076 164.400 C 263.160 164.400,263.035 164.040,262.800 163.600 C 262.565 163.160,262.170 162.800,261.924 162.800 C 261.678 162.800,261.802 163.160,262.200 163.600 M264.400 166.200 C 265.146 166.970,265.847 167.600,265.957 167.600 C 266.067 167.600,265.546 166.970,264.800 166.200 C 264.054 165.430,263.353 164.800,263.243 164.800 C 263.133 164.800,263.654 165.430,264.400 166.200 M132.185 168.900 L 130.200 171.000 132.300 169.015 C 133.455 167.923,134.400 166.978,134.400 166.915 C 134.400 166.617,134.029 166.949,132.185 168.900 M125.578 175.900 L 124.200 177.400 125.700 176.022 C 126.525 175.263,127.200 174.588,127.200 174.522 C 127.200 174.216,126.862 174.504,125.578 175.900 M278.400 175.325 C 278.400 175.394,278.985 175.979,279.700 176.625 L 281.000 177.800 279.825 176.500 C 278.730 175.288,278.400 175.016,278.400 175.325 M265.400 179.200 C 266.259 180.080,267.052 180.800,267.162 180.800 C 267.272 180.800,266.659 180.080,265.800 179.200 C 264.941 178.320,264.148 177.600,264.038 177.600 C 263.928 177.600,264.541 178.320,265.400 179.200 M280.600 183.600 C 282.128 185.140,283.469 186.400,283.579 186.400 C 283.689 186.400,282.528 185.140,281.000 183.600 C 279.472 182.060,278.131 180.800,278.021 180.800 C 277.911 180.800,279.072 182.060,280.600 183.600 M316.093 182.400 C 316.093 183.170,316.175 183.485,316.276 183.100 C 316.376 182.715,316.376 182.085,316.276 181.700 C 316.175 181.315,316.093 181.630,316.093 182.400 M115.178 186.300 L 113.800 187.800 115.300 186.422 C 116.125 185.663,116.800 184.988,116.800 184.922 C 116.800 184.616,116.462 184.904,115.178 186.300 M258.400 188.600 C 259.595 189.810,260.663 190.800,260.773 190.800 C 260.883 190.800,259.995 189.810,258.800 188.600 C 257.605 187.390,256.537 186.400,256.427 186.400 C 256.317 186.400,257.205 187.390,258.400 188.600 M95.305 189.887 C 95.914 189.979,96.814 189.977,97.305 189.882 C 97.797 189.787,97.300 189.711,96.200 189.714 C 95.100 189.717,94.697 189.795,95.305 189.887 M93.700 195.494 C 94.745 195.576,96.455 195.576,97.500 195.494 C 98.545 195.412,97.690 195.344,95.600 195.344 C 93.510 195.344,92.655 195.412,93.700 195.494 M112.786 202.700 L 110.600 205.000 112.900 202.814 C 115.037 200.782,115.383 200.400,115.086 200.400 C 115.024 200.400,113.989 201.435,112.786 202.700 M171.403 201.195 C 171.259 201.427,171.432 201.486,171.820 201.337 C 172.194 201.193,172.634 201.325,172.834 201.642 C 173.117 202.089,173.189 202.060,173.194 201.500 C 173.200 200.744,171.826 200.511,171.403 201.195 M316.501 203.000 C 316.505 203.880,316.587 204.193,316.683 203.695 C 316.779 203.198,316.775 202.478,316.675 202.095 C 316.575 201.713,316.496 202.120,316.501 203.000 M216.400 228.125 C 216.400 228.194,216.985 228.779,217.700 229.425 L 219.000 230.600 217.825 229.300 C 216.730 228.088,216.400 227.816,216.400 228.125 M268.900 229.087 C 269.505 229.178,270.495 229.178,271.100 229.087 C 271.705 228.995,271.210 228.920,270.000 228.920 C 268.790 228.920,268.295 228.995,268.900 229.087 M175.775 235.300 L 174.600 236.600 175.900 235.425 C 177.112 234.330,177.384 234.000,177.075 234.000 C 177.006 234.000,176.421 234.585,175.775 235.300 M221.583 241.300 C 223.241 243.066,223.600 243.384,223.600 243.083 C 223.600 243.019,222.745 242.164,221.700 241.183 L 219.800 239.400 221.583 241.300 M280.575 248.900 L 279.400 250.200 280.700 249.025 C 281.912 247.930,282.184 247.600,281.875 247.600 C 281.806 247.600,281.221 248.185,280.575 248.900 M227.200 259.776 C 227.200 260.093,227.378 260.463,227.595 260.597 C 227.817 260.734,227.892 260.584,227.766 260.256 C 227.630 259.900,227.828 259.596,228.271 259.481 C 228.856 259.330,228.822 259.284,228.100 259.246 C 227.562 259.219,227.200 259.432,227.200 259.776 M175.978 278.700 L 174.600 280.200 176.100 278.822 C 177.496 277.538,177.784 277.200,177.478 277.200 C 177.412 277.200,176.737 277.875,175.978 278.700 M212.267 278.267 C 212.120 278.413,212.003 278.818,212.006 279.167 C 212.011 279.701,212.069 279.711,212.376 279.226 C 212.690 278.729,212.838 278.729,213.470 279.219 C 214.127 279.730,214.124 279.697,213.438 278.893 C 212.576 277.882,212.625 277.909,212.267 278.267 M240.705 279.083 C 241.202 279.179,241.922 279.175,242.305 279.075 C 242.687 278.975,242.280 278.896,241.400 278.901 C 240.520 278.905,240.207 278.987,240.705 279.083 M189.693 281.600 C 189.693 282.370,189.775 282.685,189.876 282.300 C 189.976 281.915,189.976 281.285,189.876 280.900 C 189.775 280.515,189.693 280.830,189.693 281.600 M212.101 285.000 C 212.105 285.880,212.187 286.193,212.283 285.695 C 212.379 285.198,212.375 284.478,212.275 284.095 C 212.175 283.713,212.096 284.120,212.101 285.000 M180.000 290.200 C 179.028 291.190,178.323 292.000,178.433 292.000 C 178.543 292.000,179.428 291.190,180.400 290.200 C 181.372 289.210,182.077 288.400,181.967 288.400 C 181.857 288.400,180.972 289.210,180.000 290.200 M211.731 292.200 C 211.733 293.740,211.805 294.321,211.892 293.491 C 211.979 292.661,211.977 291.401,211.889 290.691 C 211.800 289.981,211.729 290.660,211.731 292.200 M220.000 290.525 C 220.000 290.594,220.585 291.179,221.300 291.825 L 222.600 293.000 221.425 291.700 C 220.330 290.488,220.000 290.216,220.000 290.525 M216.175 309.300 L 215.000 310.600 216.300 309.425 C 217.015 308.779,217.600 308.194,217.600 308.125 C 217.600 307.816,217.270 308.088,216.175 309.300 M211.375 314.500 L 210.200 315.800 211.500 314.625 C 212.215 313.979,212.800 313.394,212.800 313.325 C 212.800 313.016,212.470 313.288,211.375 314.500 " stroke="none" fill="#c2b556" fill-rule="evenodd"></path></g></svg>